<mxfile host="app.diagrams.net" modified="2022-12-02T08:49:16.051Z" agent="5.0 (Windows NT 10.0; Win64; x64) AppleWebKit/537.36 (KHTML, like Gecko) Chrome/107.0.0.0 Safari/537.36" version="20.6.0" etag="FOrS9zvQkMSCD64eFym0" type="github">
  <diagram id="1EYSI5BNw-lu8Qj14mbR" name="페이지-1">
    <mxGraphModel dx="1422" dy="771" grid="1" gridSize="10" guides="1" tooltips="1" connect="1" arrows="1" fold="1" page="1" pageScale="1" pageWidth="1600" pageHeight="1150" math="0" shadow="0">
      <root>
        <mxCell id="0" />
        <mxCell id="1" parent="0" />
        <mxCell id="DkT8jsgZfTyul8J4btB_-25" value="데이터 구조" style="swimlane;whiteSpace=wrap;html=1;fillColor=none;startSize=10;" vertex="1" parent="1">
          <mxGeometry y="10" width="590" height="170" as="geometry" />
        </mxCell>
        <mxCell id="DkT8jsgZfTyul8J4btB_-24" value="" style="group;fillColor=#ffe6cc;strokeColor=#d79b00;" vertex="1" connectable="0" parent="DkT8jsgZfTyul8J4btB_-25">
          <mxGeometry x="5" y="15" width="580" height="150" as="geometry" />
        </mxCell>
        <mxCell id="DkT8jsgZfTyul8J4btB_-3" value="" style="shape=image;verticalLabelPosition=bottom;labelBackgroundColor=default;verticalAlign=top;aspect=fixed;imageAspect=0;image=data:image/png,iVBORw0KGgoAAAANSUhEUgAAALgAAAAYCAYAAABJLzcpAAAAAXNSR0IArs4c6QAAAARnQU1BAACxjwv8YQUAAAAJcEhZcwAADsMAAA7DAcdvqGQAAAfHSURBVHhe7VtrTBRXFD6zy8ICwvIUFdFARBC1GCpEaSjEkqoxajSh9g+Jj0ii8YdgTQhpzSb1B4kkNabRtNQ06R+b/sHGpCYVEkojmrYgD4tQpEB5BtBE5KGwu9P5DnOXYbtQky2V0vsln3vv3HPOzrDfPXPunVHJy8tTnU4nmUwmUhSFAPTB7du308aNG2lqaopcLhepqsrjEhL/FShnzpxR+/r6WNwghAxBb9iwgZKTkyk4OJjFbhS3aIsJ8Sp9zzEBX2L44ivgSwxffAV8ieGLr4AvMXzxFfAlxqv0lZKSErWrq4vGxsb4wPT0NAUFBVFmZiZFRkZyHw6jE8/YyVeEBtn0loTE4oMF/uLFC2ppaeEDyOBbtmyhzZs3c+ZGH/ip9S4pTrM2PbhLyYkpFLNyJVks/mQLtVFISAhZA6wUFBikTZBgav61ib79rmLGGNAml2p2UkbyW/oBCYnFh1JcXKwlaJWQxUdGRrgkycrKorCwMHf2Bn5uqyXFoQkcStXw4QcXKCE+gdsCAwMD9PTpU3r+/DmpikrlX32mjwAqqX5OSk/K1PsSEosPk1g8rtSyscPhYGFHRERwHS4yOOjAwtOFxaeD+Vt7mx5iBogxOTnJfrgj+FssPBWEPXwRQ8STlPw3aN65c6ddZOnR0VHaunUrBQYGsthxXLB3uFtTq+LuR4RFUtq2N9kPQP2OOwDEDQZrZUp9Ux1NTU+5fVyKk2Ij49x9Iw8dOsQ7NmBCQgL5+/vT8PAwnyTuKKmpqZSUlEQpKSluu8TERGpra/Mab8+ePXw9WFusXbuWzGYzTUxMeLWVXL7kDA4iW0dFRbkXlsbsPTOuERlcZ/9Any7tWcAHEwOfgNVqneODGMaYRuJkjh8/zsI8ffo0n8P69es5XnV1NR09epT27t07x27fvn1UXl4+b7w7d+5Qd3c3CxxxUEJ5s5VcvjRBjCBKi9WrV/N+OPpiBgi6WKCzHB4ZYhEbgSyJOAiMLB5oDZzjgxiecQUB2OTl5bGQGxoaeLHb3NzM4wcOHKCTJ0/OsUMfYveMBQq7/fv3U0xMDOXk5NCOHTt4DGXYrl27OGZGRgaf94oVK3jC4M6A47t376bQ0FBKT0+ngwcP8q4S7Dy/R/L1E3dxXvfp/fHxcXr8+DG3TfgHQoAww8PDOdN5zgLQ6dEfGx/jQEagrHj58iWPox63hdjm+HjGMBLnYez7+flxiYGYT548mdduPgq7iooKamxspKtXr1JhYSHV1NSwWO/du0f5+fmc4VFe4foDAgLo9u3bZLfbqampie3wefbsWb5W/BHF9UkuHcbGxnI5ixIUxHMdVCMY4wyOcgDAVp8QOARipEuzMwYdnxyngcF+9hOAQJC5EQ8Cx3ah0QcxPOMKAjgX2Ilj6NtsNhocHFzQzhsB2MA2Ojqas7a23uDMDzx48ICOHDnCY8jaDx8+5OM3b94ki7ZARgwIuqysjOLi4vi6Vq1axXae3yX5eolSGMm5v7+fExZ+U9yRMcY1OLKSyN7zZfAZasJCHa0RIu7s6mRRCIjFqZg0ZpPZbc++XmPOEPA8hiyOeKLsAb3ZeSMuTrSNPjhHjOXm5nIJhJJsaGiI63MA547FLGyQ2TFp161bx338jWArYkkuLSIJieQnaIKAIMaFyhNQLBKNi8bunm6eHL29vZzZMHtgC0GCpGnLba/7esYVhICM3w9h4Y7y6NEjFuF8dvNRiBVt+OATfZQa2FkpKiqi4uJi5pUrV9wz3vgHEhAxAPwRxbjk0iBKWdzl16xZw0QbxzBmEuUJFlRoezoL4oefEeos/9AEjozW3t7OIu/p6XGLG7VQVFQ0OR26ve7rLTYIiDYeNqH+xcOnuro63tnxZrcQhahBnA9uW8jIyNR4FQEL2cOHD9OxY8eooKCAF6CAmDzwNwresy+5dAgN4vfF3RlEW9xpTaiVxdYgDogf0pPGgILtHe0sGmRFZDaxAIOgEA+7KGgbfbzFFrxx4wadOnWKywcsFM6dO0fx8fH84MloB5EZ+94IiO/s6OjgvXTsjOB6q6qqWNwghI3ZDuHDzzP23/UlXz+xnYykKPpo4xja/LosalHsVohs7g01TVXaitTP/S4KoDpV+uLTL+n+/fuc+RAQgsLiDGUFHhrZSz8ik5+Jn/C7zA56+413dO+/4tKlS+7XdrFwwEMdCBPbc0bA7sSJEyx8LBQ9x5H1sXV07do13i/HJMHd4NatW7Rp0yaeQFiQVFZW8qsFKM+ys7P5Lnb9+nU6f/48x0GM2tpazvIA2tjRwdajxH8DSn5+vgohiuw7H35orNQEPvsuCuCYclDZx59Qa2srZ3Hc+rEgQzYcHh6ivsE+qv3lLvlbLZq1Jn6zk7JTc2ec/0FcvnyZJ5gR2OdOS0vTexL/VyiFhYUq3kOBwBdCdcP3msAh1Fk4px1UUnSBorVau76+njo6O6iz+3dN2L3a+tJJAVZ/PMPXrZHBpyln27t6T0Ji8aGUlpaqEDdqy4XwTcvnFDgdSoo6K1hUKyFKOFlMFhp6Nkgmq0Jmv9lxI/B24aRllN5LKdCPSEgsPpSLFy+qWAiifl4IP9q+1lu+IevZ+3pLQmLxodjtdv4/mRISyxHmrKws9+uyEhLLDfyylYTEcoVJ/5SQWIYg+hMi+uo7VkQikQAAAABJRU5ErkJggg==;fillColor=#ffe6cc;strokeColor=#d79b00;" vertex="1" parent="DkT8jsgZfTyul8J4btB_-24">
          <mxGeometry x="360" y="118" width="184" height="24" as="geometry" />
        </mxCell>
        <mxCell id="DkT8jsgZfTyul8J4btB_-43" style="edgeStyle=orthogonalEdgeStyle;rounded=0;orthogonalLoop=1;jettySize=auto;html=1;entryX=0;entryY=0.5;entryDx=0;entryDy=0;fontColor=#CC0000;" edge="1" parent="DkT8jsgZfTyul8J4btB_-24" source="DkT8jsgZfTyul8J4btB_-4" target="DkT8jsgZfTyul8J4btB_-3">
          <mxGeometry relative="1" as="geometry" />
        </mxCell>
        <mxCell id="DkT8jsgZfTyul8J4btB_-44" value="Select Row Structure" style="edgeLabel;html=1;align=center;verticalAlign=middle;resizable=0;points=[];fontColor=#CC0000;" vertex="1" connectable="0" parent="DkT8jsgZfTyul8J4btB_-43">
          <mxGeometry x="0.1977" y="-2" relative="1" as="geometry">
            <mxPoint x="-16" y="-2" as="offset" />
          </mxGeometry>
        </mxCell>
        <mxCell id="DkT8jsgZfTyul8J4btB_-4" value="" style="shape=image;verticalLabelPosition=bottom;labelBackgroundColor=default;verticalAlign=top;aspect=fixed;imageAspect=0;image=data:image/png,iVBORw0KGgoAAAANSUhEUgAAALwAAAAaCAYAAAANDDZYAAAAAXNSR0IArs4c6QAAAARnQU1BAACxjwv8YQUAAAAJcEhZcwAADsMAAA7DAcdvqGQAAAi3SURBVHhe7VtZbFTJFT3d7bW9GxsDxjNR7LAI2wwwwEgECT5YJJBAwmwGjBBBoPnAEIwDyiSKMh8hP/CHCELjIGVChPhwcGwJwU+iQIYdkRkIGO+AjW3wvuFud+rc7rKfe54XzUixx6kjXb2qfrfqdfc799ap+7odOTk5PofDgfj4eEyfPh0hISEwMPihwuv1orm5GW/fvpW2y+UC+a3h9Hg8SEtLw8yZMwfJ7vP5xDTs+hr6nJ3PWH2N8fgG9zX0OTufsfoa4/EN7mvoc3Y+Y/U1xuMb3NfQ5+x8xuprjMc3uK+hz9n5jNXXGI9vcF9Dn9NGgqekpCA9PV3aJL31vOPAgQO+pKQkk9kNphQGBgbQ2tqK169fS4YftMLCQl9YWFjADejzDgRa3w/hLmegZWAwMSDpq6ur0dnZKdmefcfJkydFw2vUdfcGWiOjq6UFvV2dgZ4fTqcT4dHRcMfGST/NHSFHA4OJRG9vL54+fYrQ0FBQvjtOnDgxJIgURiL8gHIeUHqImuijOT/B8fzDoon0RIykI7/8DImzUsXfEN5gMoAcra2txbt37xAREQEn0/wwU5Im2Lo7OuB8/x6p0xKRHBuD7MxMUAaFh4dLZqf+f1nfAKcrZGhc8LzGjE2AkfDJycmSlMlXR0FBwbAMX9s1lOGZ0fv7epGVkY4ZyUn4+psnaOtox08/+QSfHjwok5Ds7Sogikv+hr9cvYqYxCQZ+0GUfYZPTEzEqlWrZCfN5ebhw4d49OgRcnJyMGPGDPHRu2uC1zh37py0g7F//37cuHEDNTU1mDt3Ltra2tDQ0BA4a2DgB7lUUVEBFme+leG9A0q2KGtrbkJ7YwNamxqR/qMPUVFVjXIlW+qbmlFeWSUT6cpObEwMPsrOwvu+vsHxwfNq27hxI54/f469e/fi+PHjWLBgAWLU+MuXL2PHjh1Yv369RCXJzDb9y8rKbOei34MHD4Tkc+bMkSWL9Vc7X2P/v8Y9akJCgvDFkZ+fPyzD1wQyfHNdDfJ/tl9IxIzLAbNmzcKrV6/wi99+jlQVLRyYkjJdTehE/Zs36PB4ER4VLeM/tMnw1PuHDx/Gvn37ZF7WSmmck3sAPgsgjh07hry8PDkXrTbCI+GgWmVOnTqF3NxczJ8/Xz7cnTt3cOvWLVkt1qxZg7i4OFRVVeH69esy1/bt23H//n0sW7YM3d3dKCkpwdKlS+VaL1++RGlpKd4r+WYw+UCeTJs2TbhD8D5Rm2tlMBpI9sbGRjiDC/M6KrxKh7Oc06eyNidmTZOTk/weRezGzi40d/fg68pqZVVoV6+FRroHx1vn1MZ5SD4SNTs7W94Il5ry8nKRN1bf0eaxGn2Kiook0589exZqE44nT55g06ZNInd27twpT94YTJRHkZGRuHnzpgQV/bZs2YJ79+7h0KFDsvRFRUWhv7/f9lrGJtZIdvKQXCEvm5qaRB3Y+doZFYmTN5c3Wtsg0RQZm5U86FD6vKurSy5E6VBfX6/Oe+GOT0BkbBzccfFyDAmPGBxLs85pteLiYtTV1WHr1q2SmTMyMmTl4NNe7UPwONo8NH4IfT1mcpJ13rx52LBhgyxjDCYSnxmBrzPYiKtqr8HzDOD29nZcuHBBVjB+gampqeJndz1jE2skLFdpylZykfecG1E732AjR6TIwqyrSeM3nvQ7MJIYEPRhRLW0tEif2d+v00cz65xDxjmfPXsmGfbMmTNYuXKlbCasPoS1P5JZ/TT5+eFIfGLt2rUiV9xut3xB/KII+jDImPE5hqsW3wNfj42NleDW8xqbXMZ7pDmriTxeo6R2MntbBwqZlXk8/QgPCxOykBAkKkuQ9PV6PXhTVYn6ygqxxrpadLS2wCPn/OOtF9JGUq1evVqyKzeZjNC7d+9i9uzZkvW1H8lLMo71gejnfz9D2Z5tZm2uTEeOHEFBQYHY6dOnJdPrMXoOQo/lkWBw6/PGJo+Rq1yVuRrT2OZrdr52xvvr5M213mBvwMLcUSi5fgN/+ONF/OPWv2RTeqX4ryj68s+IURn072WluFz0hdjvf/0rLFaSobOtbXC89ULaSMTMzEzRYiQ9l6esrCxZObhh1H6EddxIZvXjZ+CvPTkvJQkDlVWeFStWYPPmzdi2bZuULgmd2fkFBAcALbhvbHIYV16uwHwGRPsuq7GTN5zZO/gmU5sPRLjhUdr8n199JZNXqSxcpzR8giIqo4skJVkZAGFKX/V/Sx4NN26CL168iMWLFyM/P1+qNdTZ58+fFxmi/exIaGfaj8ZaPlcPbkIZ9ZcuXZLa/tGjR0XT9/T0yHsOntvaZ3u81zb2vzc+QKIO1322+ZrVZyxzqMznIxn4e3huCio7eyQLqoVeZEufIg+ftLIW/7EiaojSQTGK/NsUmVgm4i65QWX/L/70JRq7uhERHSOjfxwdKUc7MEgeP34sR16TG1ZWbZidNa5cuYJ169bJ/IWFhYM1fw2WGSmHWEZcsmSJlKbeqPdx+/ZtmW/RokWi2flgi4GmVxNm/mvXrkkwEAxaVmuo9wm2KYeWL18ufYOpBUdeXp6PlRfKDEbMEOGhCF8RaCkZwM2qslDl41AZ8Pm/HwtpSa4XL17g06M/h0/JIP3jsdEI/13A6g4zrxULFy6UKo+BwXjh2LNnj4/amrqWj/2thPfDv5HzepR0UIR3OB1oqqnGx1mZcDldmK+0e3tHO4pLyxCXOhuRgQyfHuOWo4HBZIJj9+7dPmZOPpxh1aQxY4F6dUha2KHn3Vs0/+cbDCjNHq4CguWebrWHnLl0OUIi/Jn9g7oXcjQwmExw7Nq1S+3TfFJBYY097bPfwaVIy0z+fdBx+vNAy8Bg8sCRm5srmoVlPf7akOUePn7X/4KybiQNDH7ocGVmZv5GGi7/v7uZ6XnkQyYeDeENphKG/fGUTyK5ceUGliU9ZnwDg6mEYYRnVqecYYmSf9DgwyYDg6kE6hV/3dHAYMoD+C9oCJ4q+hRBGAAAAABJRU5ErkJggg==;fillColor=#ffe6cc;strokeColor=#d79b00;" vertex="1" parent="DkT8jsgZfTyul8J4btB_-24">
          <mxGeometry y="117" width="188" height="26" as="geometry" />
        </mxCell>
        <mxCell id="DkT8jsgZfTyul8J4btB_-41" style="edgeStyle=orthogonalEdgeStyle;rounded=0;orthogonalLoop=1;jettySize=auto;html=1;fontColor=#CC0000;" edge="1" parent="DkT8jsgZfTyul8J4btB_-24" source="DkT8jsgZfTyul8J4btB_-6" target="DkT8jsgZfTyul8J4btB_-3">
          <mxGeometry relative="1" as="geometry" />
        </mxCell>
        <mxCell id="DkT8jsgZfTyul8J4btB_-42" value="RowName/Num(As Index, Number of Items)" style="edgeLabel;html=1;align=center;verticalAlign=middle;resizable=0;points=[];fontColor=#CC0000;" vertex="1" connectable="0" parent="DkT8jsgZfTyul8J4btB_-41">
          <mxGeometry x="-0.1181" relative="1" as="geometry">
            <mxPoint as="offset" />
          </mxGeometry>
        </mxCell>
        <mxCell id="DkT8jsgZfTyul8J4btB_-6" value="" style="shape=image;verticalLabelPosition=bottom;labelBackgroundColor=default;verticalAlign=top;aspect=fixed;imageAspect=0;image=data:image/png,iVBORw0KGgoAAAANSUhEUgAAAL4AAAAYCAYAAABEMUduAAAAAXNSR0IArs4c6QAAAARnQU1BAACxjwv8YQUAAAAJcEhZcwAADsMAAA7DAcdvqGQAAAnBSURBVHhe7ZtpaJXZGcefexOz3JhE425cqrFqa6LjRl1BQY2gqDFGNJEEsaCM4FKXCu2U0hG0X/SLiPXDTIVOFRGNYxVEP9hhtC7g1hlxy2bUxCQazR6z9fye3JO8pvfemc5UdOT9w+N9l+ec97zn/J/lPG/0ZGRktIlBa2urtLS0yMiRI6V79+5ccuHig0BjY6Pcv39f+e31esXj8YgnPT29jYOmpibp27ev9OnTR7p16+Zv4sLFTx8Q/uXLl/LkyZN20iNpaWltePvw8HBJSkqSiIgIv7qxlJZW/9GPQ2SY13/kwsW7ARwvLCyUmpqaduIvWrSorbm5WQYPHiwJCQl60aK4rsF/FBy1lZXSUFvjP2sH4STSpEu+uHg9H+yL0l8XLt4lGhoa5M6dO3rsSU1NbYuKipLhw4dLZGSkXrQIRvxWYyitJnwQQj4a+XPZtnGDtLW1aYqEEWFZm373e0kYmKj6LvFdvA+Ao3CzvLxcvBAVwkNawsEbYlKdrlJXXS3e168lsVeC9ImLlbHJyZoe0QeenpTpcUmpeMPCO9t17fcDF+Zy/fr1gkMJdN+VdyMQn30sDltTnd69e2ua0xWPajs9Ph6+qbFBUkYkSf8+veWbb+/Iq+oqmTFliny8dq16ekhfZQwj99Q/5MiXX0psQm9tOyQmsMfnmbNmzZJ+/fppGLpx44bcvHlTli1bJv3791edsLAwHSjgGQcOHNDjrlizZo2cP39eioqK/FfePoKNHyewbt06WbFihUyYMOG/IqkTo0aNklevXklpaan/iou3Cbj08OFD8fbs2VMtAVJ1tZCWVpPOGHlVUS5VZaXysrxMkn42VPIKCuWBCRkl5RXyIL9AO4T0IC42Vj4amyKvGxs72nft18rChQu1zJSTkyPbtm2TMWPGSKxpf/ToUSXN/PnzdWyQmmP0z5w5E7Av9K5fv64ECnT/bUiw8XOP8TDJSNd2TqF8TGR4/vx5wPuu/H+FPazuZTds2NBWVlYmvXr16iCvRZHf41cUF8nGX6/RBcIDYywDBw7U8tBv//SpJJqIwceAfv36mo69UvLsmVQ3t0hkTPv3gKEBPD7pgHm2rF69WvulooTQJ3nYgAEDVG/Lli2SnZ2t90J9X1hros7u3bt1bHjby5cvy4wZM6S+vl7Onj0rjx8/ltmzZ+s7njt3TttMnTpViHanTp3SCDN37lyJj4+XgoIC1eF5y5cvD9hXqPFjfDt37pSlS5fKpEmTZMiQITJnzhwdW0lJifZBdWHJkiW6t2JBrl69KpcuXdJxufhuMM9wlrkHr036/eLFi45MIRRwSl7+gQwsKgvAuRVrJS0mT2eh+BDAA6iJ8hCMoNkQvKymVirq6uWb/EIjBVJlrnWL9nW0d/ZphX4gGIQdO3asDigvL08ePHigaYNTN1Q/TrF6Pp9PU47t27dLbm6uphsVFRVy9+5dJSH30B82bJhcuHBBbt++LYsXL9ZUaeXKlaqL4REFg/UVavzMkx0Pc5SWliYXL16UrKwsuXbtmsycOVPq6urkxIkTGqX2798vO3bs0GPn+7gSXCA9PIQrzDcbVqJtIN1A4mVxyEEhPgttw7MzROPNK0worjb5e21trT4Qr4b3ajWpjK9HT4mOixdffA/9DY98c1Pn7NMpEKm4uFgyMjIkMzNTRowYoZGE0qrVAfyG6gfhZezzwPHjxzvSN8h+69Yt9dQAT847E/LwvnhzQiDExQDwIqNHj1Zig0B98cxg4x80aJC2Q2fo0KG6OPv27VNv9OjRI+07Pz9f7xNhYmJi9BoGZN/HldCCs2YdSRHhIvPImgbS7SqsoxKfsG29OeedglK7IovH11100K2srNRzokF7Hh9KnH12Cn3eu3dP05m9e/eqJyT1cOoA53kwceoBiAoBOWeS2EDy0uTkpDjs7tnkMGkYGpg3b55MnjxZvTzXmVQQqC+OQ40f8DwWhwhBxSsxMVHnj3b0gxOxBmsXxJXvL8yZ5ez/On9KfCafhSD8Om8qqY00NzdJZESEEoLQzcKxkDyspaVZnhXkS0l+nkpZ8SOpflkpzXqvvb2zTysQhJwbT8sGD4slDYBgeFGrx9hsJHK27yroWR3nsT23E8QHDAiKJyb9YBxEMmTTpk2ydetWlT179qjnD9ZXqPETWWw7jIQQTMmX9swznonQ7BL/hwtzR7rNvgnhmGuBdAOJEh8h3EJ8vLi91uKXCF+MnDp3Xv7y10Py1aV/6eb1WO5J+fyLv0usaffPM6fl6Oefqfz5D5/IBBO2a/Cw/va2P6dUVVVJcnKy5mqQB8+YkpKikQTiWD3gbBdMrB4EAjY1sffsOUYFEdmIkuaQfpDSYNRUjqZPn66bTja1lBqdbZ19hRr/06dPVY+xEFWY22nTpqmzoH/GQNkVYyB6En3owz7Dle8W0u24uDidQ4RjrgXSDSQdxLcTbze5TiF3b43ySbPJ3b++fFkfUmAWr9jk+D3NgmNtkJVFxxAijFdr8nvYYMJm+dChQ7pZ3Lhxo1ZHyLEPHjyoRLF6XT1uMHHqdT22JLS6pCdsWCEgNXje+fDhw/r9YPPmzbJgwQK9xnsF6yvU+DEi247oeOTIEUlPT9cqEH8EuGvXLunRo4dGFMZB5OC+08BcCS3MI5HTnnPMNadOKPGYBWtfTQObuxK28U75NfX+O22azjSaUMKXW2r5k8yCh5u9QawxguWGMJSX8KSlJhp89rcvpKy2TqK6x2rr4d2j9TcQMBaqKvySBpBvs8nDEC2OHTsmqamp2j/VFfScoPRImnH69GmZOHGiGg7eHCID3ouKDeSy4JlEuClTpviviOb0fISC1NaDQ+JQfQUbPyQ+efKk1vohOEZE1Ya+iRKUOaOj2+flmZmzK1euaNvx48frNRdvF56cnJwO4uOhbE2f8NFJfLM4BXn+IxPq2dQa6WaszGPa3P/3bV18Fo7Q/vHm30ibSY/sH6mFIv4PAdUUxurEuHHjtKriwsX3gSc7O7uD+IRn8iS8LV7fSfx2+EN9s9m4GuJ7vB4pLyqUSSnJEuYNk1+Y3L6qukpyT5+R+MRBEu33+EmxPv114eJ9gWfVqlUdxAd4UioO7JSfJf3SaHSmHIFQ/+K5VNz9VlpNTh9pDIPSaJ3ZAw6Y/CsJj2r39EOKH+qvCxfvCzxZWVlvEN96fXL9wZ/sEm9ElHr2H4PqPZ/6j1y4eD/gyczMfIP4gBIbmzh2ymzA8OLOzaYLFz91hCUnJ//Rf9wBKjoQHfLzy0cr4JLfxYeCgP8ZFoJTguNvWfigxSd3jMCFiw8FQf8XOF6fNIfSJh95+GjlwsWHAZH/AHccDenV8kD1AAAAAElFTkSuQmCC;fillColor=#ffe6cc;strokeColor=#d79b00;" vertex="1" parent="DkT8jsgZfTyul8J4btB_-24">
          <mxGeometry x="390" width="190" height="24" as="geometry" />
        </mxCell>
        <mxCell id="DkT8jsgZfTyul8J4btB_-46" value="" style="group;labelBackgroundColor=#FFFFFF;" vertex="1" connectable="0" parent="1">
          <mxGeometry y="190" width="480" height="811" as="geometry" />
        </mxCell>
        <mxCell id="DkT8jsgZfTyul8J4btB_-53" style="edgeStyle=orthogonalEdgeStyle;rounded=0;orthogonalLoop=1;jettySize=auto;html=1;exitX=0.5;exitY=1;exitDx=0;exitDy=0;entryX=0.5;entryY=0;entryDx=0;entryDy=0;labelBackgroundColor=#B3FF66;fontColor=#CC0000;" edge="1" parent="DkT8jsgZfTyul8J4btB_-46" source="DkT8jsgZfTyul8J4btB_-17" target="DkT8jsgZfTyul8J4btB_-14">
          <mxGeometry relative="1" as="geometry" />
        </mxCell>
        <mxCell id="DkT8jsgZfTyul8J4btB_-64" value="Create Widget&lt;br&gt;/ Add to ViewPort" style="edgeLabel;html=1;align=center;verticalAlign=middle;resizable=0;points=[];fontColor=#CC0000;" vertex="1" connectable="0" parent="DkT8jsgZfTyul8J4btB_-53">
          <mxGeometry x="-0.0059" relative="1" as="geometry">
            <mxPoint as="offset" />
          </mxGeometry>
        </mxCell>
        <mxCell id="DkT8jsgZfTyul8J4btB_-17" value="" style="shape=image;verticalLabelPosition=bottom;labelBackgroundColor=default;verticalAlign=top;aspect=fixed;imageAspect=0;image=data:image/png,iVBORw0KGgoAAAANSUhEUgAAAMcAAAAaCAYAAAADpUg3AAAAAXNSR0IArs4c6QAAAARnQU1BAACxjwv8YQUAAAAJcEhZcwAADsMAAA7DAcdvqGQAAAxzSURBVHhe7Zx5jI33GsefMwtjrDWWWqt2Y+uMfRs6obi9UUtDRosilUijQQgtKf4gEoRIkDRpLzduxA1CRKXX7lquGUZRFNXBMMyYzRgzwyznns8z5zfeOX3PmTu0tvt+kyfvb33e3/Jsv997clyLFi1yixdFRUWSnp4u9+/f17TL5dJy8wRut1tCQ0OlSZMm0q5dO6lVq5ZUrVrVW+vAweuDgoICyc3NlV9//VWSk5Pl8ePH5WTd9c0336hymEKE/8mTJ3L16lUpLCyUoKAgLQfU0a579+7Stm1bbVdSUqLlDhy8bkCWkW+MfUpKipw8ebKcggTHxMQsJoGAGyGnkg4PHjxQ4SdPXXFxsbRq1UreeecdLSNPvVVBeNrlremK2vrmrWmehnzLA+Wt6Yra+uataZ6GfMsD5a3pitr65q1pnoZ8ywPlremK2vrmrWmehnzLA+Wt6Yra+uataZ6GfMsD5a1pa50pCwkJUZlPS0tTuUZpXAsXLixt6QM6/Pbbb5KdnS3BwcHKJDw8XPr27SsRERHqVSjLeVTo7fF8qFU91Jty4ODFA+UgEsJ7cKwICwsT19dff22rHCA/P19+/vlnVQ6UpXPnzhIZGVnmMUD8xQx9GgQHB0lU51bSp0cXadakob40NS1Dzp6/IsfiL0he3mNvy/Lo2THCm3Lg4MWDSAg5z8rKkiNHjqjcuubPn+9XOfAMN27c0EN6jRo1ZMCAAVK7du0yrwESLj1VjrCwUPliyhjpFNnGW1IKDj6EaHdSUmXztn2S9SDPW/MUPSId5XDw8mCUA6N/+vRpPYMEe8KkxQi6HQFuou7duyeNGzfW2ykOLDAwbW6n5unTw1umTfirRHWN1H6AG69bt24poRwhIUHa/+bt9LL+hhrXr/a7MoccepGEXJuzB07BNWfOHL+eAyDg165dk549e0qDBg3KeQ1wyhtWdevSSmZ/MVHT4OHDh9qP0AyN5ICDov1ty165n5XvbfUUvfyEVaNHjy5TRt59+/ZtuXDhQtkYrPU8cYvnzp3T9/vD8OHDJTExUVJTU70lfz5Y8C5duqiRYZwc/M6fP6/G4k1Ds2bN5NGjR5KZmekteX1gzteEVkFsVCDifMEBvG7duiqc1hsqrfdSv55dvOxFD/GcVXJycrQPBx36nYz/SVIzHpX1sZKVp5UY6JQpU2TYsGHy2Wef6eDhZcZhrf/oo49k37590rFjR90YX16G6EO7mzdv2tb/GfTee++pVVqwYIGMHz9er8rfffddFSK79q8zNW3aVI3q3bt3betfZUKu2CcUPNjjEfyGVRCWrV69evLWW2/phCmzIvneIy37eESs1K5VUz+qGMuNYtCfDyxt2rTxHMYL5NLVZM8g3BJRJ1wKnzyWouLSs03TBuFejuXBBcCOHTvU2kdHR6uS5uXlyZkzZ9STWev79OmjFhovt3btWv0WYwfKjx49Km+//bZ6HuYVExMjLVq0UM8D/65du6qVZ4NBhw4d9Bobz8VacGvHBQVnMMLO6tWry5AhQ2x5VatWTce+ZMkSvQlhrGxEjx49ZN26dbo2derUUZ54F9YbzwKvmjVrKl9i4n79+ilfeNCO/hgu4mPez3t5Mn8ElHbGM1XE327coLJzpS3rynU/e0H5ywIGiGilSpUqmmd8hPjMyR+QRfaGdQ0i44/QIqy+UQyrhvkSykDbixcv6oAQXDwIypKTkyv/2rdfiosKJDwsRPp1byOjh/eUoTGdxF0SmC/jiIqKkubNm6ulRaPxSlwSmHpr+/r16+tY8Qr+rLLpw5Ox4kKXLVsm27dvV6FCAVBoFujAgQPalg0/fPiw5hEArvwmTJig70Fwmbs/XlxmsDEc9AYNGqTtGOPWrVt1sxhH//79NdSbNGmSHDt2TFq3bq1rasa4d+9eWbx4sYZivJ/nzJkzdY5m7fm1Au0WLlyoyt+yZUvJyMjQ8VXE327chMKVnSu8MY7r16+XWbNmqYe2rv2LJH7FgYFg7aE7d+6oYbBr60sgyIQodoTlB1gXoxwsppVMWPTT+UsqUGz25cuXdWBY24e5HqG4dE+OJiRJ/LkkmT71YxkxfKBa0wb1I6RV87ra35evITBt2jS1UFg9JonVY3NN/bx58+TDDz+U2NhY9R6HDh3S8WO5fPmZPtZF2LZtm7ZHoVFCNp1FRTgI47A8CN6ePXtUuMHZs2dl3Lhxqox4IhQW2PGCDxacOUNmHKQ///xzVTwEbvny5epF6A/PU6dOlY1x586dZfNBqFeuXKmGgptA+nO+Aygclp334eni4+N1LBXxtxs3cwOVmSvjox2eir1gT8x8XzTxrQLDjmdFsRkXhsqurZWYE+sS8MzBAhuv4d9zYIXdcuBogoYgCBPegrDnl19+kR8P/yQP84qkYcP6Mm/mVOke1VkHTVxH/9YtGnl52PEu3TjOFB988IEMHjxYNm3apJYRmPrjx4/Lrl27ZPPmzfLll1+qhWVjsHK+/CAWwKQBc0ORKWdcKAZ1WMJevXqpEKP45AkhaMdYOnXqpIKPsprwy44XZawLMO+1EuuBhad9+/bttQxhZpNYS0Ca20L4Mi8sNwJJnj2iv7UdT3jAi/YV8bcbt1HkyswV3oDnq0IYEOZqV+ePcAx+lYOJ06CikIqXQqmZBXL4eKKUuIMkPbtA/rHtR/n7tkNSUBwq9epUlXkzxku1sCp6pcsNFjzpF1Y1NODAWXjajh07Vj1Io0aN9Et9QkKCbjD1uO4rV65oPEwoFBcXp17Gjh8EzDvpb30/wCiQxgsOHDhQXTFWltDB/Fht9uzZMn/+fCXON8Yi2fEivKSecZs6vNGoUaNUcAmNqEMYqUMI8RJcKvAuO76ANHWA91jbwRceeFpC0Mryhx/jquxcSVPH01r/MogLIfMZAiJNmV1bX0Lm/CqHCakIJ0jbtfGlE4lJ8v3WQ/LvhKtyIzlNsj2HseL8NIkbOVCtCsKG9cX6mDg5MyvblpchYNIsOpabgZuftph6QghuqXD7HBxNHzsymwcBo/yUWzedcRJSYqF/+OEHfQdWE0HjUM1hfvLkyaq0vXv39ssLAUtKSpIZM2ZoPVYW5WWz1qxZo2sCTw7YCDVWmnczR7yKP77WPGmAlYeHhrSeNb5+/bq+51n4P8tcybOvhDC8i/zLIubIODAKEGnK7Nr6EnOxVQ4qsO5YYaMYZgF8qbiY9k8pK/2upNy4JA8yPa63JF9G/WWAKgYCgHIQnvB9gVsM3nH56k3tZ8fb0JYtW2T69OnqPRB+QivGiOBST9q3TyACZq7krf2BNc8hjsMvP2vmQoCN51COsEAICtYIQQrEi8M4wjJmzBg9H1G+dOlSPS8wjoMHD8rIkSOVMEirVq3yhKINVTh9+QbKc6s0YsQI9XIciumPYFSGvxn3s84VheTXFEOHDlUFMm1eNHFjxvnL5ElTZm0TiFwea1A6MwuYJIKLhcH9Gy9ih6Nn73tTwC25OelS+Djfw7xEunVqLp07ttPNJ0Ym7salG6HMyMyWg/+5LhJUVWKiSg9/dlixYoX2Q7gglJaDMRbd1E+dOlWvea3gEGlifQPOQoRgGzZs0G8jeJnvvvtO5s6dq/WEIBs3bpQ5c+ZoHnBLhVAgdAYc8vbv36+hCaEn4RdCF4gXwkYfDs94D26T3n///TLrjdARImI4CAMYHwaAd1j5Mv4TJ06oJQek4bF69Wr1SFwbc2tIX6w+Cgj+V/6+436WufKFeffu3erB8GavI1yTJk36nXIQV6MUWCETR/rDkbNp3lR5uD19CnJSJKZ3B2nerJkqg9WKPMjJldMXUyS/sFR4B0Y10OcfDcIW3mtFbGysCtCbBJQc5cWgcXvn4PnhmjhxYplyILR4DZQD98MVHcoRCIcT7X+CUVxUKA+z0yQ/J1Wiu3aQbtFdJTQkWK5dT/KEUslSFFxbXMGlH2fAoOiG3pSDZwGWnJAJS/3VV195Sx08D1yffvppmXLgIXD9hC7dunVTxUBZAuGfiaUu2w5ud7EU5WdKYV6GlBQXSEhodQkJj5CQsPLhDxgbfc+bcvCs4Lr222+/dZTjD4Lrk08+UeXAa6AYnC84eHJ9SZ7yQDjmWuRNPR/6u5d4Uw4cvBpwxcXFeY4HpTdUxObcXpiPTRV5DQcO3mQER0ZGLkYpuJ3ixoOfF3DDg2JU5DUcOHiTEcQXVJSBqz1+WsAVo6MYDhx4lIOPapwx+CAE8CKBrm4dOPh/AX/Q47gIBw5+B5H/Ag2Wcz7Bgq5wAAAAAElFTkSuQmCC;" vertex="1" parent="DkT8jsgZfTyul8J4btB_-46">
          <mxGeometry x="14.869999999999997" y="70" width="204.11" height="26.67" as="geometry" />
        </mxCell>
        <mxCell id="DkT8jsgZfTyul8J4btB_-62" style="edgeStyle=orthogonalEdgeStyle;rounded=0;orthogonalLoop=1;jettySize=auto;html=1;exitX=0.5;exitY=1;exitDx=0;exitDy=0;entryX=0.5;entryY=0;entryDx=0;entryDy=0;labelBackgroundColor=#B3FF66;fontColor=#CC0000;" edge="1" parent="DkT8jsgZfTyul8J4btB_-46" source="DkT8jsgZfTyul8J4btB_-30" target="DkT8jsgZfTyul8J4btB_-17">
          <mxGeometry relative="1" as="geometry" />
        </mxCell>
        <mxCell id="DkT8jsgZfTyul8J4btB_-63" value="Press I" style="edgeLabel;html=1;align=center;verticalAlign=middle;resizable=0;points=[];fontColor=#CC0000;" vertex="1" connectable="0" parent="DkT8jsgZfTyul8J4btB_-62">
          <mxGeometry x="-0.5231" relative="1" as="geometry">
            <mxPoint as="offset" />
          </mxGeometry>
        </mxCell>
        <mxCell id="DkT8jsgZfTyul8J4btB_-106" value="" style="edgeStyle=orthogonalEdgeStyle;rounded=0;orthogonalLoop=1;jettySize=auto;html=1;labelBackgroundColor=#B3FF66;fontColor=#CC0000;" edge="1" parent="DkT8jsgZfTyul8J4btB_-46" source="DkT8jsgZfTyul8J4btB_-30" target="DkT8jsgZfTyul8J4btB_-17">
          <mxGeometry relative="1" as="geometry" />
        </mxCell>
        <mxCell id="DkT8jsgZfTyul8J4btB_-30" value="" style="shape=image;verticalLabelPosition=bottom;labelBackgroundColor=default;verticalAlign=top;aspect=fixed;imageAspect=0;image=data:image/png,iVBORw0KGgoAAAANSUhEUgAAAMIAAAAaCAYAAADljINzAAAAAXNSR0IArs4c6QAAAARnQU1BAACxjwv8YQUAAAAJcEhZcwAADsMAAA7DAcdvqGQAAAstSURBVHhe7ZtpaFXXFsfXvRmMmdSoiXGeX9Rq1JI4j1isI7Z2EAekiiKFfnACoagVaSkOKOKAoFCK/VDRfmg/SB1RFLUVpUUrT23VqDHGm8SYeTLv/JZ335xcz73mvfsqDTl/WLn7nL32vMZ91DNr1qx6CxIVFSXR0dFSV1cnvXv3lv79+0vr1q3lxYsXQj3k8XgEUAbhnv8bXhCurUEkfUTS1iCSPiJpaxBJH5G0NYikj0jaGvwvfQDKXq9Xqqur5cGDB/LHH38EeAJt582bV//8+XNp1aqVvoyLi5MRI0ZISkqK1NTU6LvnZTXKHCmSE2L8JRcu3jww9Mj05cuXxefz6XNAEVatWlV/8+ZNiYmJUeufkZEhAwYMUM/AM/jlRoH+BiM62iOpKYnSt1cXqaqukdwnBfLEV2JpXp2fozGyB7X3l1y4ePPAAyD8hYWFcvbsWS0bRI0fP/6LqqoqKSsr01AIJcA71NbWBsKiR/ll+munKK9Ijy4pkp6WIksXfySxMdHiKyiUlDbx4it6bilSQ0hlKL1D3CvvXHLpTRLA6BMFQSY88vKnQ4cOKvjJycnSrl07jaWMR4AQ6mBqkxQrrWKjpbikTC7/ckVu3LwllZXVEhsbI2ntkx3bmP6aSvHx8TJ79mzHuv8XkRvNnDkz4BH/DnoT63Dp9YRMExqRL/Ts2VMVALnnvRcGhAEvQGWwEmgHDhRjuYTa2joZlZUpFeXlktGvp2QNG6jtW8fFOLax92mnhIQEGT16tMyYMUPeeecdTdZ5bzR47969r7SJhLp06SJt27bVMt7w8OHDsmvXLvWKwbxNJfZw2LBhuoZp06bJ22+/HVCuv2sdTSX7els6GWVgP5KSkhorAoX27dsHEuSmKEK1xUd4FOWplYkTx0tm5mBJToqXxIR4SxmsPhza2Pu008iRI+X+/fuyfPlyWb16tXTu3FnnQR1CFDyfSKlr1666AY8fP9ZnYsWlS5eqMQjmbSoNHTpU+/n8889l/vz5cuvWLenVq1dAuSJdB+2d3jeFgtf7OopkrOZAnANnlZ6eHlCEqOzsbM0RCI8Ii6gwFszgQd6rOUJCXJQkJ8ZJaWmJ/Kt/f80PLl6+Zln31pL72CcFRa+26Zoa7++xAVjSzMxM2bhxo6SmpsqoUaOkpKREcnJy9BfLWlRUJAsWLFDBolxueSCAVuNJhgwZovPPz8/X+Yer412nTp2kR48earFLS0vlvffek7/++ktzJDwSfFbupB7SPh798H7gwIHKM3HiROGigXbDhw+XTZs2ydOnT9UjsOFZWVmyZ88eGTRokPTt2zfkOlj3mDFjZPDgwdKxY0d58uSJ9o/Fevfdd/Umjz26fft2SF6AITN1nGVeXp7eANrXy7jUsQ/wtWnTRvnwysFjNQdgcDBgsbGx+syeIjusMRSQRc6H/eIqFXjRBsIZowR2zQlHxPyJSQlSXFoppWWl8iT/qfgKiyXJ2tBw1j+YsPxYKiwyggO42iooKJCKigqdNIv76quv5IcffpDu3bvLw4cPNckZO3asXL16VRYvXiznz59XYUN5wtVR/u233zRMWblypZw5c0bHOHDggI7DpnKjwHhHjx5Va8p4AKHi6m3evHkqKIyze/duSUxM1LZXrlxR5TCXDd9//70eCuVQ6+A9yn78+HHtF8Uip2Cu1GG5vvvuO1m3bp0cOnQoJC8GBSW4dOmSLFq0SBUbwT99+nSj9Z47d06V4OLFi8qHJ2YdyIB9rG+//dbxvP5pRNiH8WFvoUePHqnBcuINJtaNV9C8gT/AxEswcAB2Cg5xlCwFio2JtUKkOuWx/ljJcpXU1r10NU5tgvs1dOHCBVWGCRMmyKRJkzQ04oMewgt++ukn5WOBCBDCi2Xk8L7++mvp16+fjkkbBDVcHf1gSfEYeB8sPICHtYMjR47oM/0wHoqBoWDj6JObNQQQMA7JF14VzwCZdVFetmyZtgNO62BM3h88eFDnwjmwfgTVzOfnn3/WAyPkCsXLmpjD1q1b1WMVFxfLn3/+qWu2r/fDDz/UPq9duyYff/yx1rE3169f1/dmrIULFwbW8U8mPBhnk5ubq0rNejBMTrx2MufNOfDsZfOMNwjtEXAljQlUVFSqJaqqrJSUdm21bPWp5NTGue+XXgGrRmixbds2PUiEiwkCJs33DZ6xWngMNgCvwTN19INQwovghapDQIB9fECdGY99QNjNeFgcrPyzZ8+07q233goIN+14x9qBvV9D4dZBPaHIjz/+KCtWrNBQjrGYv72duUAIxWv2Ay+A8rOf7CGCAcxcjKJOmTJF1wEPYSOGCNjHak5Uackgc3eqC0XIHcaOsEo9wuvCIgYIJj6g5eX7LIHwStGzYim3lMJrZc8PHz1Wz+DUxqlvrmw5XASJ0IO49caNG2rBcO8cmr0tzygvSShWmYPlPQeKEPCxBMENVcfdMX3wnn4p28cIHg8wHsSGmT7tvCgIVogxTR285B4ojJ3X3pY+OQgEb/PmzWrlMQQoK+cS3C4cr9kPFAJe1kuO06dPH+2Dd/QDH3nRqlWrNASCuDEzVtQ+x+ZAnCc5Dp4Rosw7J95gMgaMffVy0Aij2fimElenZeWVVlxWYVnbGssaFUrO/XuS8yDXCo+c2zgRcR0HxqQAgobV5MDu3r2r74ySclDmGQvGwZNXIGxYNywbymMUwamO93gHLKURUmAEANjHM8JBn8wNZUWxSHgNL4LFXD/77DN9xtpjrTmUnTt36jvDG7wOwHwIYQijlixZoufBmHY+M7dQvOwHwoxRYV1c5ZLfsG77es2+kdC///778sknn+htHTd3wIzVXIj1sTbOBqLMOyfeYGLf2Bs8qJdrU7v1caLgD2MQwm4FQVJhWX8sLULGb5mVONOfUxunvkmIjx07pqEIFnTq1KmaRO7fv19vNOAxQmHmyDNjkAjOmTNHCYHYvn27pKWlqVUMVYewEDuPGzdOx+Lg7WMEl4HZMBJNhI9vBSiDnZdEGUGbO3eu1vP+yy+/1Bsb3tt57eswsS2JOR/2+Edh9E2dnY/fcLzMjzWTR7BmsGPHDvn9998brZf9PnXqlCoBhAJgQVEQ+1jNhbgN48bLPFPmnZ0nHHH+GAaPFZfX48YRrFA4d+2pv9SAdsnRkt4x2XItMTJuZKb4Cnxy9vyvlrB1kvzCUsnzVfg5GzB+2Mt41QlYT5JSfnHrKAbJM2EHyeHatWuVD2WzP3OAJ06c0GtBXCNXgCSRr6u7d++eJp6Mg5AQHnz66acartj7J47/5ptvZM2aNfqMUCFIJPL79u2T7OzsAC/CePLkSb1RwisQxpD8o5jB87Y/cyDMBWOCYeIg79y5o0oX3C4cL+DWhDUTMjE+ws/52tdLfoBSMVf6JzRmrzEY9rFaAjBSnI9ny5Yt9Rw+1icUzl7L95cakBjnle6d21oWKVoGD+wjhZYi/PtOjqRaVvf23TwpKqn2czZgwrBUf6l5AsEjZMNoEHYRX37wwQd6Lemi+QKjFTV58uQvwnkDcDe3tJE7gWpqX0i0t07atkmSrOFDtLP8gmdSUlIuj32llmI15od6pif4e2ye6NatW+AjHdafZJVQgg9mLpovkE0NjTjMcDh8tZO/1Bix3hpJSyyTuOhqeVFbJdWSIPllSVJV5/z/Dj4anucvNV/wkY7vHigCH3OmT5+uIYWL5g3Phg0bLIV4mRSGwnnPRn8pMoyt3+QvuXDxz4Jn/fr14bXAhYsWAP2POf6yCxctFvpBzYWLlg5XEVy4sMC/HHNzBBctHp4BAwa4iuCixcOTkZHhKoKLFg6R/wBA2uRHug73hQAAAABJRU5ErkJggg==;" vertex="1" parent="DkT8jsgZfTyul8J4btB_-46">
          <mxGeometry x="17.435897435897434" width="198.97435897435895" height="26.666666666666664" as="geometry" />
        </mxCell>
        <mxCell id="DkT8jsgZfTyul8J4btB_-14" value="" style="shape=image;verticalLabelPosition=bottom;labelBackgroundColor=default;verticalAlign=top;aspect=fixed;imageAspect=0;image=data:image/png,iVBORw0KGgoAAAANSUhEUgAAANoAAADSCAYAAAAsTt62AAAAAXNSR0IArs4c6QAAAARnQU1BAACxjwv8YQUAAAAJcEhZcwAADsMAAA7DAcdvqGQAACc9SURBVHhe7Z0HfBVV9sfPS0goSeglkIROQgm9CAihWEBFRUQRQVjEFQVFsa2LBdTVtbGLrqKrSBGFVUGWP+AqTaSDNCEgVUgIKZCQ3pOX//xu5iaTl/cmbWZSON987id37szcOTNzf3PO3LkzzzZ27Ng8coHdbhf/8/LyyGazibwEZQDlMkmQd3d3V6eMA9vMzc1Vp8pOrVq11Jxx4BjJ41QezLCpIsfJrHNXFY8T7JHHSdqG/de2bSDbP/5r55XlONnmzZtXRGjY8NWrV+nKlSsijwrlBiXYmIeHB7Vq1YqCgoKoQYMGVLt2bXUuw1QfMjIyKDU1lc6ePUuXLl2izMzMAlFp2z2ECGE1adKEWrRoUWbhFwhNq1SADZ45c4ays7PJzc1NlAFpQL9+/SgwMJCysrKEEXJ9hqlOoC2jfcNxREZG0t69ewvEJkHbRhtHe/f29i6Y56gZZ9My7x4SEjJfKxLk5QLYeGJiYoFbRTm8XMeOHalNmzZiGUxLoWkFJ6e1ecd5JU1r8/gvk2O53rQ2X9KyjtPaPP7L5FiuN63Nl7Ss47Q2j/8yOZbrTWvzJS3rOK3N479MjuV609p8Scs6Tmvz+C+TY7netDbvbFmZMA2P5enpWSSaA3A2LVu2FJEbRCnXkehNy7zt5ZdfLlzCAWz8jz/+oISEBGEEVqhXrx4NHjxYuFAYgLKklAx1jYpR37uOmmMY60E4iAgNXg1iQ5vPyckR4sMtEv5L0rNcysYptrlz5+qukZ6eTqGhoWKjEF5wcDB169atwJOBvUcuiP8VZVDvdmqOYawHHgzt/Nq1a7R161aRhzNp166dcCzSw4FzUUVl4+7uRgP6dKahg/pQm4CWQrTRMbH06+ET9PPuw2R78cUXdYUGj3Xx4kWKjY0lLy8vGjp0KDVs2LDAm4G9Ry4qRuTRrcP708Ab+tOG/22lo6Fn6NYRg6le3dr049Y9lJqWKZbVY1DvtmqOYaxHCg0OZP/+/aJzpG7dutSpU6dinX3nogtlU6+OJz0zcxL17B6kluSDjhbcekVcjiJ3JQwU92iuEsBGoqKiyNfXl7p06SJuFmGMXCY86hr5tWhAnTu1oZzsLAruGkgtmjakfn26U53aHuTupoSgYVFkzysaFzsmf9+GTsuvp4Qr4R133EEXLlwQYYt2Hi5wI0eOFJ1U2nJOxiW0a5wDhIlwMDjmjRs3LrZcbFL+fzfFyc1+9D6lrQcLrQCct/DwcJEgNI9a7uSGiktKUDnuzdq3by9iWBk2FqRcu6Lq/F6bc+fOiYbg412Xjhw5IsJOW16OYpCyE8pyuklbpyaNGjWKmjVr5nSeWcnPz08cZGfzypP69+9P3bt3L5hG+H3LLbcUTONk3nXXXeIkffvtt/Thhx+Kbmc5H0me5MWLFxcpL0syer9qWkLbRrTWqFEjcU7q16/vdDk7NKCkvj060cABvVWJESUnJ9OxY8fo8uXLBT3yoFRCw8abNm1a0AHiKLRcJZ394xLFx8eLhBtJqDk6OlqEnJcjoygjM0csp5e0dWoTGtfmzZspLCzM6Xwzkr+/v2j08OTO5jtLsNNZORKOAy5Yv/zyi5jG8cTF68cffxTTaPwxMTH00UcfiRBm+vTpIpLQ1oGEbRS70JUhlWe/rreE4wuvFhAQIHoZnR1v2WZDbuwjhATQaQjHkpSUJHQindKuvYfIvXXr1vNx7yWvls4SQkU0DKhchjNaLl6Oo+wcorTUJPLxqis2gJSWlib+h54KpzybO9VW3LGb0oiQSL2vFP+U+mB061aNRJkjeH6xY8cOEbqOGzdO2BASEkJt27YVwsZ2evbsKR6gowEBhLgdOnSgiIgIYTd6SuFR0EWLCwD2GR7FWV1YFtvCIww84kA5hIDyHj16iGOBiwnW9fHxodGjR1OdOnWEDZgH7yvtQBkiAVwkkP/666/Ff9QD74/lsI2uXbuKcBG9vHPnzhX/UT/sGDJkiOj1wsnH9lauXEl9+vQR24LtWBfLDh8+nH7//XexXWf7PHDgwGL7VdNBdIULluwxxPmFE8DxcQXaN8QEx4L2g+Muy2WSoeOD40crx9eHUlJS6LfffhMeDSKDZnCPh/u7lLQMcsOJ01bgmKBIiEWKzFHZ+UkxTNFebKKdzl2IED2V2CBCn1PnoyktPZOemH4f/eXpafTck1Po2SemKDePk2nO45PomVmTFffbIb8Op3UXegr8x0GDV3jrrbdozZo14gqNg4GdwoFBbxGWRYPavn27mEaDQ5ftQw89JBo8PAb2yVVdu3btEgdt0aJFNGfOHLEMGvvhw4dp6tSpYj6eJWIfYRNOBAT04osvChFAlD///HOBHbAB83EsEY4g4eqHZdD45YnHNiEe1InwECfrhhtuENufMmUKnThxQtSBBDAPN+0PPPCAGNmA/YJHxFXY2T5je9r9QpQgj3FNTQiVMdIJAkNCSIdj7GxZxwTwgBrnAedEm+QyyclJoi3h3KA9NW/eXJxbCC8xKZk2bdpMlJtJbpgpT56zBHUCCFIKrdhGleVEUuZdTcihPy5GiJ06cyGaEpKzqKGPp3IF705+rVpSm9YB1KF9W+rUsT1169qZunYJEqEl1nesVyYgdwysXr1a2IadUjyyaIg4mGhgCM9w9UJsvXHjRnGVB7hfnDBhgvA28JBw8cBZXdgmloNgBg0aRPfff784mG+//ba4QmF51IFGLm366aefxENNeC8cK5TDayI8XL9+vagb3cbwtPAwp06dEt6nV69eFBcXJ5bdvXu3sANIm9Bz9d5774l7OnllxTwIE+KBTagT2wGwE7YDx30+ePBgkf1Cx4rjsa5pCZEGjhX6D3DBwf5DPM6W1SYcY5xDebuEto+ywoQQ006Hj54QF3lcLHE+IWycj6TkVNp16AL9uOMk7fz1dMn3aFCz9GauPJqMV5GEZ1PcauiZy5ScrjQKpczLy5uWfbkyP61YRZ9/sVzkF336BX362VKKiLqWv66LhB2XeQA7sDMoR+ODyDAP3ghXeXTJYucxjZAQy918883iGSDEiLBPhnau6gJymzhZEAPmd+7cWZShQeOA48oFkIfIcFJwUiEgCA5XUGkH7tNQjhB3z5494tjiogDviLj+/PnzBSJBfdguxIkwD6EjbJf3DLhA4soJ+7FfEJ1cD/vvbJ/RGIDcr+sp4YKFY+NsnquEc4mLosxr58n2/r+te0RbwgUebeHQoUPiIrrup30Un5RJvi2a08svPE5ujj1b2oSTiA3oh43KBlV1Iy9EoYgtJ6+2uPey23PpYmQCbdp+iLbuPErbdh2lHftCafueY7Tn19/p591HKD0DjbZ4vTIBeZBQv/aAATRY5NGQhg0bJkIDeBuEgjjAOADPPPOMCO2Q0KMnr2qu6hL7ofzHfBwjeAw0YJSh4aLxQwSo27EeiFxrBzwdlkdjh1DhvTZt2iTsQwcIBIHQDzZJkaA+KURsW9qEhHMh50mb5Hxpr7N9RqPBMlhWa29NTriA4f4UFzck5FHmbFnHhOOMCxjOl2wXMuH4IUVeSaYt2w9Qjt1G0bEptHTlevr3ih8oJcNGLZt50/y/TCevurXJDVdFbQXaBJEBhGGOinZMeXl2uiWkNz0+bRxNnTCa/vTAKJrxp7H0xCP30exHJ9CcmZOUe7PJ9MLsqTT32UfoJSXNe/Ex+tvLT1LHNvpd97JxIAEpetnwZKNBQ4YXQZj2ww8/iM4QXG3QUG+77TbRkTJt2jR69NFHxb2RXl0yBMOBlnWgix7T8BLYFjos4HW09SDBg6HHCl5sw4YNwg5pH44lQjp4SJx4eD94K3g4jArHcgB2wBvifk56JXRiyHnwvBAZPDjmYfQCgB2u9nnEiBFF9kvaW5MTjjn2F8cKCXmUOVvWMeE443jhQgmhac9x4TJ22rrnJH20ZANt2XWMzl+MpIT4eKqVmyA0gPMEB+CGDTuunF9BrujUkDEqymRjdExwobXc7OJ5Qp/ePah/v97Ut08v6tG9G3UP7qrch3WmoMCO1LFDe2rbprW4V2uhuFRf3xYiBIqIvCrqcFY3EpB2YRq2aedpp9E48RwDPXpofDhQ6IxAg0OCwHBFQ2PUqwthHEbB4BkevOK2bdto7NixIkEsCxYsEMJAg3asB8cLV07cBx4/flyElCjHycKFbefOnUJkEAiEBnBviBOq3Ufc56J81qxZdPvttxeEipiH/UJP7MMPPywecKMuuZ6rfYan1e4X6pI219SEixM8kpxGHmXaZfQSjhEiB0QkOK6yHcrQUabE+Ct09fJZSk64Su6URRPuuZliFZHhoguh2ZSrXX4LcwAnDELD1RQbkt7NGdv2naUWTerRw5PHKUbkKaFghmJUNmUoDSsjI5MykRQjUZ6Tg4aQH/qkK+WpqWl0OSZRdP+PHNhJrbE4n3zyiehGR/jzxRdf0PPPPy/Kcd+zbNkyeu6558Q0QG8jGhYeAEvQoLds2SLCPYTCCO0gGL26MDIAHRm4h0N4B3Gipw7d4hAK7IEHRZ3aegC63bG9tWvXig4JLUuWLBHd7vCQAGEe9g+eB+Emjg1CvZkzZ4qGcfr0adFjiBOP15PQmzh79myxLoQDUeE+D3UMGDCgwA5n+wwv67hfjGvg+RG1yGGI8IooO3lJKxulzafGU05WhnKO7DS4byfq2b2LECQcCe7fbFOnTnUqNFzFITA0CBmfumLr3jOUZ89WEq7qSoFiCBqFXMe9loeyMQ+RL0C9YiBheVyRbxoUqM6svmA/0KjRgGfMmCF6+PDMywwQbeB+DBdBiBYndPz48aLrnjEOdIKhLSPkRwSD41xUaIVAaPaMWOU2qpdyCxMg2je8onvPnj3nq8sI5Ay4SVy1UbGeNwPnw2MpIS6GrikpOfGamuIoKSFO5NNTkygjLYVSk+OVlJCfUhJEeWZ6KtmUxgkxtg9ootZYfcG9GR4pyGdnCNEQdpgBtiUfouN8vf/++yISwaMAxjigCZxDXNSQkI9JcH6rk5uboyyTQseV2waM+23RvDm5waNNnjy5iDShXJw0uMe+ffsKb4aTp8fSn+IoJ/0a5WYlK+u5K5d1pWJbLbK5KwnTNjfhtZDPn0YeZYVvboNpo6q/0ABCPXSCwKthFIiZ4CE6nr/hnOEZDu7lEBIzxoLoDlEe7v/hfI6kDEXE6JQ8e47QQ7aS7LkZVMvTi2yTJk0qWByKxAmDB0NHAu4XMI1yPdadH6DmKsbdHQ6oOYapWiBcRMJjGDHyo9e3is7wcR51LGEJ2CZOnChUBE8Gz4WwEYpFl3O+Kyz/V6cYpiYBrwaR4bEOQAiJBO0gAtTDPTg4eD4WhMDQy4geFgwzgnohspK8GcNcT6AXGKDnGdpA51dpECND8LwGwkLnB0YuoJeFRcYwRZERH54949YKXf3QDjRUErannnoqDyKDuOAG5YNPhmH0Qf8FhAcBYrSJHggsWVUMYzK2Ll26sNAYxmRsyj0ZC41hTMYWFBTEQmMYk7EFBgay0BjGZGwdO3ZkoTGMydg6dOjAQmMYk7G1b9+ehcYwJmMLCAhgoTGMydj8/PxYaAxjMraWLVuy0BjGZEo39JhhmAph8/f3Z4/GMCbDHo1hLIB7HRnGAtijMYwF2Fq3bs0ejWFMxtamTRsWGsOYjK1t27YsNIYxGf6UAcNYAA8qZhgLsIWEhLDQGMZkuHufYSyAhcYwFsBCYxgLYKExjAWw0BjGAlhoDGMBLDSGsQAWGsNYAAuNYSyAhcYwFsBCYxgLYKExjAWw0BjGAlhoDGMBLDSGsQAWGsNYAAuNYSyAhcYwFsBCYxgLYKExjAWw0BjGAlhoDGMBLDSGsQAWGsNYAAuNYSyAhcYwFsBCYxgLYKExjAWw0BjGAlhoDGMBLDSGsQAWGsNYAAuNYSyAhcYwFsBCYxgLYKExjAWw0BjGAlhoDGMBLDSGsQAWGsNYAAuNYSyAhcYwFsBCYxgLYKExjAWw0BjGAlhoDGMBLDSGsQAWGsNYAAuNYSyAhcYwFsBCYxgLYKExjAWw0BjGAlhoDGMBLDSGsQAWGsNYAAuNYSyAhcYwFsBCYxgLYKExjAWw0BjGAlhoDGMBtvbt2+epeYZhTII9GsNYAAuNYSyAhcYwFsBCYxgLsIWEhHBnCMOYDHs0hrEAW69evdijMYzJsEdjGAtgoTGMBbDQGMYC+B7NAry8vOiuu+4iHx8fWrVqFSUnJ4vyGTNmUGJiosjv2bOHIiIi6LbbbhPLpaWl0caNGykvL69YWW5urliHqT64+/r6zlfzjElkZ2dTaGgoderUic6fP0+ZmZnk5uZGnTt3ppUrV4p5EBzm165dW4ipUaNGItWvX79YWUxMjFozU13g0LGSgJeD2G666Sbq0aOHKGvcuDHFxsaK/NWrV6lp06ZOy5jqBwutkvD09KTU1FTh4bp27UqBgYHk7u4uQkUJhOisjKl+8FmrJOLi4mjNmjV08eJFOnz4MLVs2ZLsdjvZbDZ1CRLTzsqY6gcLrZKAsIYMGSLyDRs2pJSUFCG+Zs2aibLmzZuLkNFZGVP9YKFVEujQQMfGxIkTqXXr1qJDxNvbW9y7oQyiOnnyJJ07d65YGVP94O79KkTv3r3pyJEj6hRTk2CPxjAGgQulK1hoDGMBLDSGsYBSCU3PJVYUs+qujjabCR/nQirj/LFHYxgLsE2bNo17HRnGZGyBgYFlFhoGuiYlJalThZw+fVrNMUzN4rXXXhMDwMuCVieWCA1Gapk3b56ay+f9998X4/4kr776apFhR4sWLRIDaiWvvPKK7pi/krZnlD1YBg+QGzRoQJGRkerc4mCYlZa2bduquXy085EfPny4OpXPpUuXirwa47j+5cuXxRsCEsf5jpTWHpzngIAAWrJkiXhYLnF1fMLDw+mDDz6gFStWFDlfpaFJkybUpUsXGjhwIL333ntqaT7yfOENh3379om68SC/LGjrf+edd0psP3JbaNPXrl1T55SfGu/RcNAchWQE69ato48//pjuueceGjBgALVo0UKdow8asZ4Q0LAhLKvQswejVw4cOEBr166lWbNm0d13363OKc4nn3xCTz/9NE3qnU0hge7k16hst/8R1+z086lcWnXUnZYvX04PPvigOicfo+pffaIOLV68uFj9WiqyLa2YcGmW04YKDcZrG/WbC19Wc5XDS0//rYjQjLLn99AzVLeWD918883k7++vlpZMG/92RRp2WMQF8Z80o/OHDB5Gu/b8ok4paDyp0bi0xwG8kLplyxZKz0mmLsGBamkhB3YfJvvJH+nOXu7UrmnZBOBI6OVcWn/UTo+8/hVduJI/3MyM+psOupt69u2mlhZi5LaAPLMVr+k6IykxmfbtPFhmkekCMcnkbLqSwX5if7Hf2H8tcbHxtHHtJsMaZrCfu1KXm3j7HNsyq/513/1g+r4AnEEkU4QmY+o7brmHHpn0BD00fjp5efmIMlfg6tq8qa86ZRzwZkbac+K3U2KAb3lFBu8h74GaNGpKrVr4kW+zluK9Mz3q1K5Dnh6e6pRxlNYe7C/2G/sP5PHZu+MATb8hz7CGCSCGe7um0rXIFEqMzjCl/ok9sxXvdUgtyceMfZGYEjrKcO3oiUOUkpJEEVHh1Cu4n6JsG3krDTwtPVVJaeIVfTSe2p51qF7depSSmkxu7rVow6bvadwdE+izFf9Say4fCB2BkfZ8u+K/9Nr81wteXXFGQkIC/XrgoAi58NmCVq1a0Q0DB9CAvgPFfBmuoX50cmRmZQg7cO0LCgyiM2dPK+V25YbdRm42N7LhBVA3d6UsR3FyNoqNv0rNGjenyJjLor7yArEAPXsgOLs9V9iDV3beeedt+uTTRQXH58bBIfTmiGjybZDvfX+MaE9eHW6ixN83UIBnJF3xe4g8PT3ITrUo5fQGaq2WeXh6UnZWFjW/vIIuZbWiBl3GUOr5rTTa/w9Rz/krdlp4tL1oZ+/cEldQv1Gg/td3NqFZzz2ilhAteONj+uDOVMO3BQyVrrwX0pKSlkLJKfkueuf+n6lOnbq0ZuN/yL9Va1G2bdcmys7JovNhZ+nw8YN0NPSg8DzHfz8q5htNRe1JTkpxKbJrcdfo7bfeoTG33UWvzXudvvh8Ca38ahWFh4XTmu++p8cee4xOncr3CJJc0YjzexQTk+LF/6txVxQPVlvk4xOviTes0zPSKFlp2EhNGjWjVGU/0tPT6Z2/v0u3jx5DY+8cR0u+WFrwNvaKL7+i8ffcJ/KSM2fO0isvvSqWHR4yknr16kUTJkygnTt3qksUt8ddEbm0p1mzpuIioD0+l8IvFWmYwWNeIC+3FGrrFUu+9YnqRW8iz0s/kEf4empbT1u2UfzHNJbFOlhX4t/YjS5eCKOoyEIRu0K5BtB/f8ulV9fniIQ8yvRA/bFX4tSpfOKvJZgiMmBK6Kild3B/GjX8DqqleAaAN4Tz8gqPwi3Dble8SG2KiAynoI5d6MTpY8rVuhkdO2nO6yJm2XP61Gn68/QZtGH9RjEN7/jY4zPovQXv0BOzZ9HMJx6nt99+m9544w3asWOHWAb4KJ6jccMmwlMVoIkxGinz3JR5mVmZwoukKQLz8PAQF4wPF/6LTp78nZZ/uZTmvvJX+nLZCvrv2nViPbvS0rSPBOLj42nmjJnKhaUOffzpv2jLtk20efNmGjZsGM2dO5d2794tlnO0R+jWwR7t8XHk4JrXqP6l/1Bwi2xqUd9GN7a8QoN8Y2hIy2jq7ltYNlgpw39MY1msg3UltZSWmZOTo07ps+F4LsWmED13Sy2RkP/ppL7SUD+8dGl4eV8vkbTIMmfJGW4IA8uagKtyID3bxs1rafHXH9GK1V/QN+tWUMzVKCX8+lA07k+XLxTLbP7lB1r6n09Fg16zYZUihH50RAnxcMU2Am2vo1n2wJO98fqbNHDQDQXPZ+AZdvyyg9b9d72YBniTetSoUbRw4UI6duwYxcXHivAvWrHjSmwMZWVnieXylL/L0REiH58QR1FXIsX24Vm8veoXhHjbtv2seKT7qFnzZjRgQH/q178fLXjvHzRkUAh9/tlisb4EgrHb84SApIjwHwIE8ITO7ImMiShmj/b4ONKudiT5eJauAWvBOlhXAhNL+9mGQ+F5dH9fd6pfR2mXSkJ+3wX9dVG/9lssrtAKR+ZdiUnibL4bYuCyJuCqvCzgRKGxazlwZA9t3fE/dcpaymvPF4uXKGHOReU+7AZ6cvYToiwnO4fCwsPpnnFjxTQ4dOgQff755+Ki9MILL5TYkCAsKT5JUkqi0tjVB6hoJ6poAO7p4EV37d1Bf3608N4DNG7ciBb9+2NKTU2jxx+dRTePuJVGjhwpnpPBJvlZBT2c2eNIjN9UOpNSumeKWrAO1pWUVgggPTtPCEyCPMr0KEv9jvxtoP5tjbP5hoaOGEFwvQFvtv7/NlDIsBAlDRWeCsCzfb92NfUf0E9MA3ySYMyYMfTuu++KURT79u1X55SPkTeNoO++XS2+I3Lo4CEKPX6CRt02Sp1bnM6dg+jNv79B6zaspe07twlbMZJj9OjR6hIVx9u7HnnU0u9BdQbWwbqSwsuHOVS0fojJVXKGoUKzckRDVeHQocPUpEljdYqoW3A3mvbwn+ixmTMoLT1dLc3n66+/po8++ojuvfde8bXiXw/8qs4pH7OfflKIZ8rkP9E/FyykN958TXRYAPQWyi76J2c9JcJJx4RRKEOHDhX/kUJuHF7uq7ykjk8zsts81KnSg3WwbnUB4aGr5AxDhSbBWLiqAsbhmWlPTHQMvfX2m/TUnCfFNEJFdO+PHj2qoNFLHC9EO7YX9vaVh7p169Jf/voC/fDjBvpq1Qrq26+vOodo8pRJtHrtdyL/r48/EOGkY4I9SPgcOf7v2L1dCakqdq2/vGcx+eQWDb9LA9bBumVh5a+59Pz3+WM88V+bZBmWMRpXYpI4m2+K0LQDTisbNBwz7cnOySYvby/Ry4f7VPQ2Pvv8M7R82Zf04ITJtHnTFnVJEmMj8WnvwYMHi2l0z1eUqYo3W62Ej+hmh5dCGBl2MYyGDRkhBC9BD969Y+8r5tGEJwsJKQh5KwqekzWvp38f5wysg3XLwpFLJXeWlGYZKzBUaOgmvt7AYOLwsEtiAO4/F3yglqKzKFnch+F52osv/FV0juAeDZ//vvHGG8UynQI7iv8Vwa6Eegv/+SFNnDBJTOfZ8+iiIjT0Sl69UvgNyIyMDGHjm3//WxGPhg4aiPDKlSvqkhXDqM6QmoahQsPzneuNvv360P59+8UPVMjwEYy+7VYR2oGYmCtUyyP/uR3AdxzBvePvFf8rCp7RLf9qmcjDq377zXc04YH76bN/fyYEpsUxNCxp6FdZadKkabnaAdbBujUVU0JH3BdVFT788ENT7YFHS0lJFSEknpNJ0NXfKbCT6Mpf8I/C96swLOvOO+8U70UNHjxILS0/+NGLRR99IkLI+g3q03PPPK+IfBQ9+dQT1LNnT3pi5myxHMZKYv7cF18qEjpidAg8Lb6cbARxcbFF3o0rLVgH60oq1iVTMmbX74gpQqvoDbWR4IGs2fZM//PDYugVQkUt3sq924OTJlJjTa8kwjQ8sJ4/f34RL1de/vnBgoJQEJ0i369bQ3feNUbMQ4fI4iWfiTy2hflyWRk6YvgVhoV161b8lZHy0OLycgr0LvvPSmEdrFuAogRTz5vZ9TtgqNDwMuT1iL+/nwgD4VmiIgt73DBQ94GJE8T9GcB9k3xb2aiG7UhlX+QuZLai5KyyNyusg3UlpfE4vQNK3o6rZUrr0bTPxWTe1bMyibP5hgrt6FF9A2oyeDD97PPPilEiGHMI7+Yf4E//WfUNbd26lX7Y+D+aPXu2+EzBQw89lL+SyWifnyFvBf3unUdJAQ9QaIwHxSTl0e6o5rQ3ugXtivKl49GFZXuUMvzHNJbFOlhXgkEzJf1E1YP93em9cR66Ccs4ozT1SyAcR/HIMmfJGYYKTYJvalQVcH9mpD0+9b1dfg8Dz81efvUl6tW7pxBW6PFQOnv2rBKanaaGjRqKkBHDnvS+L2IkeH7Wu09vkZB3Brxuae3BfmP/tTRq3JCiEwv9Q+iGdynV7k0XU5tSdBJRmu+tlBVwO2W3vpMupmnL7hD/MY1lsQ7WlYTF2am5b9Ni9RuFrF+LWdsCpgitrB9mMROEUkbaE9DGT3y0RY8ePXuIMYdzX/4rvfbGfHrq6dmi40P2xmVllf05U3mBwFyJTFJae7Df2H8tQd060s+nCkfZ432yoZmf05j2UdTT30a32L6iYdlLaUT253Snpmx49hLxH9NYFuvId9HAjjO51Klzh2L1G4WsX4tZ2wKGjt7HQNmaTvc+XWn16tV04YLz72uUCTncCf9l0puuRLC/2G/sv5YhIwbRlwfd6EyMcQ+Gj4bn0vozXjR05EDT6l9zwkPUr8WobeFMybMl84aO3pfPjWoy6EkcPGyAeJfrjz8Kr8DlpiQByfno5KgksWE/sb/Yb+y/loaN6tNd40fTusO5dCqq4mKACP7vaC4tXbqU6tara1r94yaOEfVrMWJbOEOyO0p7tkwJHfHdxarCZ599Zrg9QV07ks0zR7zrtn79evGKf2nB/VCbNm1EHp8oKA1iOZNEBntwn+YM7Bf2D/uJ/cV+O6PvwF7k028Mzfk+j1btz6YrSWW3FfdGK/Zk00sb3Wj2u9/S+PHj1TlG128j/+HjKLhn8ZdWgRHbwhpuDp2/pn7XsaZ+bk6CB9WhR36nsAuXKCW55PGUpfm824VzYdSuY74QzaYke7x9vKhNuwAK7t2lmCdzRkJ8Eu3evp9OHj9FiUq+LKAj4pHpf1auJ3kFH1B1PF8VrT+4V2caPHwg+Sj7VRLYVnaiGy1btkx8TLWiGCo0fHgSvWqSmi60ssL26FOV7cFvjPftW/h2RGnQ6sTQ0FH7kReGqUng98Urgin3aJVBy+Z+9NjUp0VCvrJhe/S53uypMULr2/MG2ndwJ+35dQf1713xwboVhe3R53qzx1ChzZkzR81ZD164TMtIEx9Dre2Z/03EyoTt0ae62VPR2yJDhYabv8oCXwSuV9dLJHwDsbJhe/SpbvZs27ZNzZUPU0JH9NRYzeFjB2hQ3yF0Y/8QOni0cIgUeozYHranJPTsMYIac4+GD31+snyhSMhXNmyPPtebPYYKraTBtgxTXXnqqYq9ZmTar8locXS/jvPlT7NK8PkB+alq4Dgfw6qiolx/0qyk7bE9bE9Z7JEEBQWpudKh1Ympv/gpKenAVdffsJawPdeHPRUSWr9+/cosNFfgc9eOB6GywUGrSjaxPfpUZXv69+8v/pcHQz0avniLX7+X8Ni5orA9+lRlew4ePEiTJuV/O7O0aHXi2n+WA63IGKYmgS9MVwR3RRzz1XypwVN0POBz5Mkn8z8giqsAPkJT36cBDRt0M3UL6k7nw85Rts5P/uCVDfykrVG/iwZCBo4UdrA9zmF79JH2gF9++YWOHz8u8qVFqxNT3kfDgYK7rYm/YV0R2B59qqo9ADatXLlSnSodpoWOzj43V9N+w9po2B59qoo9jz/+uJorH4YKzdkHVK+X37AuL2yPPlXFHnz0tiKY+hytpF6je8dMpF37txf5OdsBvQeTjxKbG/HzunD9MgwBbE9R2B59HO2pyHM0Qz1aWakpv2FtFmyPPlXNHj0MFdqMGTPUHMPULEJDQ9Vc+TBUaL6+vmqOYWoWa9asUXPlw5TQEWPPqgoY98b2uIbt0Qf2GIEpQtMO8KxsMLiU7XEN26OPdnByRTBUaPhBO4apiTzyyCNqrnwY+iMX33zzjZjHMDUNPz8/p21eLwGZN/RHLiRGxbVGgJcA2R7XsD36wB6Jszavl7TrmHKPZlRcawR405btcQ3bo4/2Te2KYKjQpk2bpuYYpmaBX26tCIYKrXXr/IGeDFPTKOvIfUdMCR3xjYaqAuJ9tsc1bI8+Rt0vmiI07YdQKhvE+2yPa9gefYy6XzRUaIb81CzDVEGmTJmi5sqHoUJbsWKFmmOYmkW7du3UXPkwJXTEd/OqCvhYJtvjGrZHH9hjBKYITe/jlFaDL9KyPa5he/TR+6JxWTB0j/CGNcPURMLCwtRc+TBUaJ06dVJzDFOzWLZsmZorH1XHR1eQ6+03kcsK26OP2fbUGKHxbzTrw/boY/pvWGuH9Zc2AWflERGV94Ny+Jgm/0aza9gefUqyZ8KECU7bvF4CMm/oazL+/v5iXmXAv9GsD9ujT0n24F1LZ21eLwGZNyV0xLfwrIZ/o1kftkcf/g3rUnK9/SZyWWF79DHbHlN/5KKqwPbow/aUDGyqyI9cmPJJcBilxfGgOc7HqwjaUdJ4fVz7ZqvjfAyL0XtiX9L22B62pyz2SKr8b1gzTE2g2n57n2GuD4j+H9UeqC2K8y2WAAAAAElFTkSuQmCC;" vertex="1" parent="DkT8jsgZfTyul8J4btB_-46">
          <mxGeometry x="5.128205128205129" y="209.99783314020857" width="223.58974358974356" height="215.38461538461536" as="geometry" />
        </mxCell>
        <mxCell id="DkT8jsgZfTyul8J4btB_-87" style="edgeStyle=orthogonalEdgeStyle;rounded=0;orthogonalLoop=1;jettySize=auto;html=1;entryX=1;entryY=0.5;entryDx=0;entryDy=0;labelBackgroundColor=#B3FF66;fontColor=#000000;" edge="1" parent="DkT8jsgZfTyul8J4btB_-46" source="DkT8jsgZfTyul8J4btB_-86" target="DkT8jsgZfTyul8J4btB_-17">
          <mxGeometry relative="1" as="geometry" />
        </mxCell>
        <mxCell id="DkT8jsgZfTyul8J4btB_-88" value="&lt;font color=&quot;#cc0000&quot;&gt;On Overlap&lt;br&gt;&lt;/font&gt;" style="edgeLabel;html=1;align=center;verticalAlign=middle;resizable=0;points=[];fontColor=#000000;" vertex="1" connectable="0" parent="DkT8jsgZfTyul8J4btB_-87">
          <mxGeometry x="-0.1846" y="4" relative="1" as="geometry">
            <mxPoint as="offset" />
          </mxGeometry>
        </mxCell>
        <mxCell id="DkT8jsgZfTyul8J4btB_-86" value="" style="shape=image;verticalLabelPosition=bottom;labelBackgroundColor=default;verticalAlign=top;aspect=fixed;imageAspect=0;image=data:image/png,iVBORw0KGgoAAAANSUhEUgAAALcAAAAbCAYAAAA+sB4KAAAAAXNSR0IArs4c6QAAAARnQU1BAACxjwv8YQUAAAAJcEhZcwAADsMAAA7DAcdvqGQAAAsgSURBVHhe7ZxnaFVbFsfXvTH2XmLvLbH3Okax917Ghg1EEURFUVScjF8VFD+oH/SDIgoi2EDBOnYdG5Z5jr2X2I09Jrlzf8us+07OO+9GRxkm8fxhcXZdu/332mvvGxJYtGhRKDU1VW7evCnp6ekSExMjhlAopN8mTZpI7dq1hXIZGRmRdB8+/pcIBAISDAYlb9688vDhQzlx4oR8/vxZ0y0/NjZWwyAmMTExiURInZKSoonEITBkr1atmlSuXFnTiBu5+QILG+G/Ne4M8zVxp0eLO8PZlXXHnWG+Ju70aHFnOLuy7rgzzNfEnR4t7gxnV9Ydd4b5mrjTo8Wd4ezKuuPOMF8Td7o7jpgRhuRPnz7VOKQ3Ylu5wMKFC1UDle/cuSPv3r3TimTmz59fWrduLSVLlpQvX75oWsr7L6rgR1G00O87zIeP70WePHnUk8B6P3v2TLkKP50IzJ8/P5Ly6dMnuXLliu4AyB4fHy8JCQkRiw3++a8X+v1RtKpfKjPkw8f3w7yNV69eyaFDh5TsbgTmzZsXITfMv3fvnlYoVKiQtG3bVooVKxax2uD0b97kDqS/l2DGBwmEUjUeCuSTjJiCEgoW1LgbLev55Pbx38PIjdE9c+aMPHnyRONOxLRr1y4J4hp5zY+Ji4uTunXrqsPu9HceJH+IhLVO+geJSX0k9etWk57du8jIv46Qjh0TpVxcSSV88uMHkiEByQh9dXVMKpQpkCWeGwUD0atXLz0N3XmgX79+cv/+fT1e3fm+ZC/wEouNp8E8OnmKBGbPnh2x3CAtLU2uX78urVq1UoI7rTY45XBLghkfpVBMiowfP17L49QDyqMHOXjwoGzZskVS88SpNTe0/hO3ZPDgwZFO0vaDBw/k0qVLkT448/lyyly4cEHevn2r+V6AYOfOnZPk5GS9HL9//15evnyZmftjYHIbN24sFSpU0DiGgf7g4hUpUkS6desm3bt3lylTpmi+E4xhzZo1MmLECClatGhm6rfhZ48jp8Luh0ePHlUuGAdBEII4Bf+6VKlSkUuk+duRfJP0sD3+/EQGDhyYhdiAI8NeVzp27CgtWrQQSX3ze92wOHU6hY5OnDhRevbsqZuGzqPH+uHMHzBggOzdu1fq16+vi+zWZUIdyt29e1cqVaqkm+7x48eeZb9XmjVrpmMPX8xl9OjRcv78ealXr54Sj3zads+hCXmTJk2SwoULe+ZHk589jpwqzC0Gpnz58jofxhUk6IwgHJHlypXTBSPOAjglI0xqJPQlRS075EWpG5CbxnFrhg8fLqWK5Q3XCS+41XfpNQG0O2zYMBkyZIhaQI53p/W2/AkTJugtmYEdOXLkD7pMrA5uQNmyZaVTp07Spk0bzStevLh07txZ+vfvr5uUzQTZ+vTpI3Xq1NH0Hj16qGVt2bKlbqiwK6flChYsqHO1ZMkSvbH37dtX3rx5oxabd1jGDyAweV26dNE86xenkMW9+kF6iRIltB7p9JmF5C7kHkdukKtXr+oJbHEMxI0bN7KUcQvrCsdq1KgRIbsRP+guCLmZUAhrhbxE0t5KgwYN1Lp7kdt2EV+Eo1vCG8JLl1PoR9OmTaVKlSpSvXp1PX4vX74sz58/j+Q7y5cpU0b1Y5XNWrrF6mzdulVdhpUrV8rMmTPl8OHDSlSek8aOHas62JTMQb58+WT37t2SlJQkFy9e1HJ8Z8yYoe2wCAUKFNAv6RCNOpCPfMiHS0XbuEMLFiyQPXv2SM2aNbOMZePGjfL69WvPflCmffv2cvLkSU2/deuW+pcHDhzIMg5OJRtrTpaKFSuqkfjw4YMKBqJ06dKeZd3CfGHk4CNxuJfFcpMBsCYQhkIsgFPMrQilfVLisbjsHCysNUSczkESdNqGYUNE6rv0moDJkydLYmKiNGrUSPXgx9aqVSuSP3fuXLWsWDqsGH49/Wfh3fqsjg2YzYCVpB7WH+BK4PeSh7VmM4Ft27ZFdDLOpUuX6pgZKxYbl4CxYsG5iFt7tMN4zR/evHmz6mEB2LBnz56N9Iuy5q+7+8FvDujnZMDV4VTgl+RTp05lGQfzYG3nZOEUZt4ePXqkG5wxcop6lXUKc8j6YhCJG3ez+NxMpFltK/BHwQrinqTpIrMAEJDFxwIh/NL58eNH1QexCWPRaFjdEtXh1vtVAD41l7CuXbvKunXr1J8Fln/s2DHZvn27bNiwQaZPn67WlUU2a+cWbTczDCyM5SWPdjiFcMXYSJAWMGm8GFEG3Vhmm0DmCStDHXe7pNnYTQ8blTkljfoQ1frF5vDqB/VevHihG4M/f2COyWPRgbPN3CTwygj7rYIRxU3GyFAXiZCbiaeAkdtZ0SlWMS0UUCsCmbmlQmiIzgJwLENoOomQhhVLTY/9armjdJxFpn38dCw4Rw2Lf/r06QgxOIbxz3jb5PI7cuRIJY+XPgRYm0Yo4vSTPs+aNUvmzZunsmLFioi1cPbTYDrA7du31XoyoVaOPOaQX3sholMPYJNjDOxPHchjfrz6wdwxdiwa9SE5fw6Ba+Mch7Wd04U5YU05yRDCpHmVdQuc4Z5iL3ykRchtLgkXJ8uMJmmhfPq8hoXBuiAQ3Sw55IY8WDf08StSWiiPWnwvfSbAwiwgi0nH8TfRb/ksMK8kHN/80GR1vMSIgLBBsHxYWyw05OGpkMvdhPAFlQ3FJQ3YJqe+k6QWpz4knjZtmqZDXF5PsNr46/QLDB06VL+cAswNT63m7qCTH868+mHHMvcV+stdhFcS5tw5DhtbThfGxZg4URHCpHmVdQvzyJxwwrFuiJKbDMiIFTRi2wK6hSdAJC1YRIkLwfGR2GV8uTzRIeJcCCA7Lx1cgJLv/yaht9e0vpduk02bNsnUqVPVekNeXBP6aC8LhN11ogmwSeC06dChg76AMOb9+/croRBIjaWAtNRzt+MV59cxCDZo0CB9SYG0ixcvViuC9WGOWCReatioq1evVvfGiI8ONoNXP9jQXB5HjRqlT65g2bJleoF1joOFdPYrp0rVqlX1ZczihElzlokmzANGwryPQNhKhJhgFhp/jyPWrLgXDp9/lhkSiUl7Lu9e3tOnKhaQuiwuC8uCE8barl+/Xo9edhbHeNGKrSWx6Ve/0QtcoMyXRdh0vEbg71o+z2u8xTvBZYy2neDyhguzatUqfRvnQoe13blzp/7dDH4um3Lfvn3qOjExPG9ygq1du1bmzJmjetBx/PhxtaqAMKcVpGVckPPatWs6ybTBnGB10bljxw5NY5ObhcbdGjNmjJKZyzOvAl79YENgJHDF8NN58oLQzLV7HL864AouHIaUuQ6MGzcuhG/HZDVs2FCtCBbuz3Do/NPMkEjsxxuRnz05OlkISIEudg6TDwnYOJShcZ7I8sc1lY5N4zK1/FwsX75c23aC1wTchf8XMA+Qt3fv3vrUx6sN5Pbx48A1xDhjUALhI0/JjfnHGYfc0fCPc8mZofAihcK+zet/63suVoVdw3HL4nGsopfGsKbmQ+UvlSChYD7p1KxsppZfD8y1vWvjfvF2jqvi48cB9/AYeC4NhC87IRKaN2+uxMZFiYbN58plhr4iNvRW4j7tUd+aCySERoc1wqJxFOM/PcvfWVIDJbTe8GZP9Purgj+m2rVrl5KcZ0wfPw94DrjBgfAlKIQ/yLGI74jPGA1HA3/LDP0Y/hL6e2bIh4+fC7vzqVtiP1RkZ7V9+MgpwHrHhC13EkyH2NlZbR8+chKCXPh8YvvIbYDTQZ7Noj39+fCRU8E/fPBNto9ciUBCQoJPbh+5EoH4+Hif3D5yIUT+A1E87+uIEel+AAAAAElFTkSuQmCC;" vertex="1" parent="DkT8jsgZfTyul8J4btB_-46">
          <mxGeometry x="320" y="70" width="183" height="27" as="geometry" />
        </mxCell>
        <mxCell id="DkT8jsgZfTyul8J4btB_-103" value="" style="shape=image;verticalLabelPosition=bottom;labelBackgroundColor=default;verticalAlign=top;aspect=fixed;imageAspect=0;image=data:image/png,iVBORw0KGgoAAAANSUhEUgAAAGsAAABRCAYAAADVXljHAAAAAXNSR0IArs4c6QAAAARnQU1BAACxjwv8YQUAAAAJcEhZcwAADsMAAA7DAcdvqGQAAAvSSURBVHhe7Z1niNVOF4dnd+29d127rlhWsYKsDVQQe2/Ye0cFFRUVFXtDRRQb+MH6xYJfFDsq9t4VFXvvXf/vM5tZs9nkbu5u4t68Nw8MNzeJ2dz85pyZzDkzRsTGxv4RPp4gUvv08QC+WB7CF8tDOCbWrFmzxKRJk7RvPm6QpIOxePFiMWbMGO3bX3r16iVatWqlfYvn1atXYuDAgXJ7zpw54vnz52L48OGidOnScp+ecePGiUKFCslPMyIjI8WaNWtErly5tD1J4b4ePHigfQs/ElkWQlmxceNGUbduXVGmTBlZFixYIPLmzStu3Lgh/vz5q7d+W0/58uVF/vz5LR92hgwZpFDz589P+BvGsnPnTvHlyxftX4QfCWIFEkpRtGhR8T9LlKVw4cJy3/fv3+VnIOLi4kSePHnkud27dxe/f//WjiRl/Pjx4s6dO0nK7du3Rc2aNUXmzJm1M8MPKZYdodq3by+2b98uduzYIQsP/fXr1wEfPFSuXFn0799fbNu2TYwYMUIMGzZM1KlTRzualJkzZ5paVdmyZcXp06ctLTcciLQjFBQrVkw8efIk0QOsVauWiIqK0s5IDJY3aNAgMXXqVLF3714xZcoUaSF0REaNGiVGjx4tBTDC9fQWbCwRERHameFHUL3BHz9+yLZF//CwHLMHiDXRpiHYhAkTRO7cuUWRIkXEpUuXZKfk/fv38phyo9++fZMdlIkTJ4rDhw8nWLC+VK9eXZ4brkQcOHAgiV8x6w1iDaVKlRLNmjUTMTEx2t6/qN4gbg6rAywJ6AVmzZpVbisQB0v9+vWrqFChghQcF3ft2rWA7SA9zRw5cmjfwgvbY4O0WV27dpXbPFS62orp06eLbt26JRHLx1mCGsh99uyZePHihexUGDsWe/bske9diEU3v1q1atqRwHz8+FFaYDDn884XjgQ96q7vjenbKqMbRIAPHz5oRwNDpyJLlixBnV+lShXtW/jgWIiEXh5ijRw50neDLuGYWHDr1i1Z682Gm3xSj6Ni+bhLUO9ZPmmLL5aHiIiLi/PdoEfwLctD+GJ5CF8sDxESbRYhkfr16ycbWCRKfPToUfHo0SNtT/JwzWXLlomxY8fKkX6ncfv6ely1rPTp05uGT4zYEQo4h3PNWL9+fUL0Wg8CDxgwINkHqVIWjBB369Kli/YtHl78ly9fLsNDdq/vBK6KRTyLkhxKqA0bNiR8mhWwI2pKsBLrxIkTMp1AX+kIEf369UtcvXpV2/NvcE2sTJkySctigJaaaIfevXsnfJqVlMDfx+py5swpv9erV08m+6xYsUIGSNOlSydjdVWrVhWdO3cWffv2lecpzp49K7JlyyZjeQoi5KdOnZKRB+P1S5YsKaZNmyavP3jwYPkc+vTpI3r06CGPE4vj/Hz58snvHTt2FEOGDJHbyeGoWIiSPXt2UaBAAVGwYEHx9u1bOZKOe8LC+GGB3KKyHqNFqZJauDcEoo0hJY62smHDhmLp0qXi4sWLYsuWLWLdunXa2fEQCD137pwUCPiNNWrUkBZnBGFwm7t27ZKfVNbmzZuLK1euJKQw4DoJvKqQEJWAgKsdHBWLaDCiEP5nBJ7YE4KRWAMcIy3ACmU9RotSxQmwBiLX3CMWdvz4ce2INZyjxMIFEt0m28oIxwjKYq0I+ubNG1GxYkUpBjksGTNmlKEdroclU3ERy647dVSsd+/eyYaWm6L2EPuiqNwNgpP8UCuU9RgtSpXUgpUvWrRIWtOSJUtEhw4dZNuTHFgGv4loAqKdPHlSO5IY0u2wPDpBFLwLqQv83cePH8s2sVKlSjL/EUtDKCo0FdsOjopFTUEQHgC1S4FQiPTp06eAblBZj9GiVEkttD1Upnnz5skkHpJOW7durR21ht9DG1W7dm1pMVbWiCUhzMKFCxMKUXPAeho1aiTF47y7d+/KfJZgOimudDCoXdREMmwpCMe+QEKBsh6jRamSWhCHfHzaUCqP3srZ5jj3aQYCNWjQQLp1q/c83B1NAZ0YrlO8eHFRrlw5eQxRaKdoG+HChQsyWysYsf5WfwfhRun14BbZpmH/+fOndIl2LSslzJgxQ9uKhx7ZzZs3tW9C3Lt3T7ogsn55BeDh7t69Wx47cuSI7JVxf5s2bZL79NBG4RnMOhYK3rnorNDzI0+EnJWtW7fKY6SZ057pxSJR1m7nAhwfwUAQHgQ1VeVr8ADoKfFjzMRq2bKl/KQXxTafZujPC0dCYrgpNjZW27LH+fPnta3wIiTEoheFi3j58qV8WeTTDI7R9VavAuGGH3z0EK70Bn3cwRfLQ0S0bdvWd4MewbcsD+GL5SHS3A126tRJ24qHN367+8KN/3vLYuSEGS4MeTGyQliEbSfQX/tf4KpYVoOiTjN06FD50CiIMXfuXLnNZHKGvRhhtzudSA9RY+PaH7y8MwbJUhGpuXZKcE0sxgWZR8youxojdIuVK1fKh0YBQhNsT548WX5PKUSICRLqYRSdURSz4KPbRMXExEzTth0DcYhhET8itM1oNfvMBnEJ7OlLMPvMaNq0qTh27Jj8m4Drw8oIcfCQGzduLA4dOiTD9YQw+vXrJ1q0aCFD/NevX08UjCQ2x/WYykQEAZo0aSIDiYyW669tdb127drJOdNs8zxmz54tl4hgUJvzSNRRI/HJ4ahlIQY/gPA9sSHcAw+NnAwSSohxGaHjoC/B7EsNVCbc3L59++ScaGJuRJD1EOGmYqh8CVwgORQk0Rixuh5Ck0QDiIaoagI94nLcLo6KhVAMyhK7YrAVoRCMWskPxS3qI8hpCe6Me6JdRQDu0SwVDWGUKyQUT7rC/fv35Xc9VtdDDHI+EJN8jDNnzkixqNhpKhb5BIjDjanlEXB/iIc7REBqayhAW8rDJaeCwoi+WS4EQUN+T4kSJaSF0Y6ZYXU9KixByOjoaCk2lsc2Qn3+/Fm6Wrs4KhY3S9gbv6/vCSIUPSdqpVm7lRZQ83mQrMSmCgujGKGdI6pLzI3MJDMXCIGuR2eEUD8rHXAei43FxcUFZVXgSm8Q0aiNhPYpCGfVjeflVl+C2ZcaeIDkMZIAw/2y+o0+kVMP1sR6Uzzop0+fansTE+h6pBaQ1aRC+HziKvUpB3ZwRSyEIXEEV4iV0Qtin1kX3qzjYLbPabD0tWvXyiQY3sfIZ8cDmEHuBi7LygVCoOuRyYRHoUcIiEXbHWz33/HhJtyGyhtUcKOqHTO6QcTgxwB5eVgN+5T16LfDHcctCxdAJ4JPVRCIfaHSXnkVV9xgsGBRxrUz3HSBXsUPPnqIkLAsH3v4YnkIPxXNQ/iW5SF8sTyEL5aHCIk2y811MP4l3L+ba2K4KhZjY2peViCYJZ+cUAoEY6K2HkL4KhbFmBt/Exg1IT/DKZjUzUDu5s2btT3x46DMyVq1apW4fPmyttcdXBWLoBsPzmpWiEJNnmN2I9tWsxz151nBsgXMbmQ6qBGGu5KrOIEgBM88ZCbjqeswes6iJSyvzriom0RFR0c7noMBpGmRosUALkHJQA9Jzc/Sf5oVRaD5WW3atBH79++XfxOYkkq2ExFsljMn+EeYHSthDQqCilgElcpqv4JgInOQmVrKvGAgj+Lhw4cy5kWIZPXq1eLgwYNyINvsej179pQCk3dB+AiLJGeEUX3OY9SeHA0zHO1g4BIQKNTWweDvEp7AXVqtVWG1Xw9Rg7RcE8NRsUJ5HQxVW63WqrDab4RMJiUW/4Y4lllcyup6iJHSNTEcFYtIaiivgwFWa1VY7TeCZfD70mJNDEdTjagdCIIbpEappBmEQiRyFAK5QWU9qbWiQFDDeWAkguqh9pvtN2JcE4O8QTOs/g5gPSlZE8OVl2JqFLUv1NbBANyQ2VoVVvvNSKs1MVwTi56Oesei04FggXqEoLcss+IEaq0KarJaGQ3Lt9pvBm0UXsLOmhhm1zNbE4MOSKDOBTj+noUgvODi9pQ4WBS9I36AmXX562DYIySGm/TvUHbw18FIQ+g54Rb8dTACExJi+djDlQ6Gjzv4YnkI/79k8gxC/AfWJHcE11DkwgAAAABJRU5ErkJggg==;align=center;labelBorderColor=#000099;" vertex="1" parent="DkT8jsgZfTyul8J4btB_-46">
          <mxGeometry x="63.42" y="460" width="107" height="81" as="geometry" />
        </mxCell>
        <mxCell id="DkT8jsgZfTyul8J4btB_-13" value="" style="shape=image;verticalLabelPosition=bottom;labelBackgroundColor=default;verticalAlign=top;aspect=fixed;imageAspect=0;image=data:image/png,iVBORw0KGgoAAAANSUhEUgAAANMAAADnCAYAAACE7GNiAAAAAXNSR0IArs4c6QAAAARnQU1BAACxjwv8YQUAAAAJcEhZcwAADsMAAA7DAcdvqGQAABlgSURBVHhe7Z0JcFVVmse/l5A9gbAGZEnICmGNhE0wKugA9ohKKWiLIOqojcu06zi2VWB1T5dTdld125bLqN3a06U1TlvTjoO4ALLJoshm2BICIQQChCX7TjL3f3LPy30v7yUhHu083v9X9dU7dznnnXvv97/fd859N3GtWLGixUJcLpeA+vp6KSgokMbGRsF6jd4nOztb0tPTpaGhQZqbmz32ISRQgC+HhIRIeHi4nDhxQrZu3ap8X+sAwLfh4/D32NhYtU5v137vXA7NyclZqRdg2BgaGiplZWWqISxj/cWLFyUlJUUSExNVJ7CsxQRDWbfjFFlXl51lfGrzXt/RsrPc2b7ey84yPrV5r+9o2VnubF/vZWcZn9q813e07Cx3tq/3srOMT23e6ztadpY729d72VnGpzbv9R0tO8ud7YtPGPwY/g5RnTlzRi1rEFCuuOIK6d27t/J5oOtpnMuu559/vm2LDb7syJEjSlD4IuwcHR0tV111lfTv398dtSqq6uwa34/esZF2iZAfn169eqlMC9EJgoLPNzU1KYFlZGSoT01NXZNdao/rueeeaycmUFtbK7m5uaphiGvs2LEyZswYd0QCW3cdVZ/fl+lZI+0SIT8+Ohs7f/68rF27VpURMEaOHKmCh07lwKFj5XapPaEzZsxYqUOV09AgcsiqqioVlSCkiIgIpVgdJotOXrCaaJYbrsmWny6cLxUV5XLqzFn5h+umy7jMFCksOin1DU3t2va2oQl9fK6n0X4sA4hA5eXlSlTw9SFDhigdOPc7W1Yn1sBH/nHuTFl2921SVVkhJadK5aZ510iolbr5FBNAgyUlJTJ48GAZPXq0Epcz3ywqOa+EMCotUZoaG2RsZrokDIiX7CvHSWREmISGWOnisRJpbmmr48uGDY73ub4nGVKBm266SY4ePepOc00a2v/JT36i2scNy7ktPj5eZs2aJXl5eR7raeYMfo1rAEHhGvTp00dFJe/9Si/UycjhA2Ts6BTrOjXKhHGjZeiQ/jJ1cpaEoBF/BlUiKiUnJ6ucUqd4brvYLNGRYXLy5Ek5fPiwuthxsVGya9culSK6WpokxGV11NqvQ3O26bA5c+bIwIEDfW77oSwmJkaNDeHYN9xwgzp2vQ288847Klo763jb0KFDlQBQnjx5sowbN869DREe7erlfv36yfz585WAPvjgA3n55ZelurravR2mL+Rbb73lsf5SzNknWnuDb+Mm2bdvX3We/J0r7BcTHenh873jYpTPdygmVBwwYIB70sFbTBctyz9yXC5cuKAMg7eioiI5deqUnD17Vk6cLJG6+ia1X0fmbNNpcKAvvvhCjh075nP7D2HTpk1T3/fAAw/Ik08+qWZznJGo3Q3Fhw0bNkyJA1Ed5wE3pQ0bNqhtOJ+4QX366adqGRft9OnT8sorr6jc/L777lMZgbM9WFe/2585++RrO83yRev8Ijp5z1h77GPZofxCnz4fggr+DNEIeaNuWDuU07Fq6kXyCorUhAVm/5BvVlRUSE1NjeQePGaN7lokIjxMwnqFSq/QEKstl+U01mrc5u02vNvVBrAdIReRAgNC3MURsXBHxz7jx4+XrKwsd51Ro0bJ1KlTVRmOivQIdaZMmaKcGs8L/LWF48T2N954QxISEuS6666TPXv2KEHgLgT0mBF9wna0YY07lQDQxvTp01Xda6+9VgmztLRUhg8frtpACoF6+fn56vtxntBHtI19Fi5c6G4HbaBvN954oyQlJal1+lzh5oZtSDsROW+99Va1HubrmL37pPe9nO3QoUNSWVnpXka0x3l27uNtOL8YyuAREHwf1xrrvK2sqlH2HzrSzudDfDUKQyU0iLCnHai9WSmc5fNny5vl8NFi1TgOAB0/WHBKamrr5ZH7bpd/+fkyeerRJfLkI0vkieWL5fGf3SVPPLxYJo1PaW3DZ9utd2P9CSfD3f3Xv/61fPjhh+pOW1xcLMePH1fOhVkY7Ivx3fr169Uy0jVMd959990q2uDOj2Py1xYiEO7ciA5IzwBEcO7cOXVz0P2Bg86cOVN27twpS5culc2bN0tqaqo6dpQhwFdffVUef/xx1T7OJQQLw8n/8ssvlVPjjobzi/0RsdA+UjlcUNwQ0MclS5bIvn373BcSYNv27dvljjvuUMLEcSGy4Wbg65jxfc4+Idrrc3y5GtJa3Mhw3WB4MItz7GtfbwO4qeI64Jo4Te9TfKZGRSinz/uNTHAsEBcX5xZTu4at/ZRZ20rLmuRIYbHqeN7RU1JW2SDxceFW5BgnQ68YIokjhktKcpKkpSbLmMxRkjk6Q6WBqO/drjagOw/++te/qr4NGjRIRowYoZwNJwxOBAfHnR8P2FatWqXuwgC57KJFi9TYC0+yMZYDvtrCd3711VdKUNdcc42KPEjzUA8TMAB1IFiI8sUXX5S0tDS1DvvAwdEGvgsRAhEB7eDOhfqISgcPHpQDBw7IxIkTlUgxRsN3oh+6fZTr6urkpZdeUmMspB56G8QHgeC70SZSRoD+4HuB9zHv2LHDo0+IXM7zfDlaZGSkOlcY2+CmguOHQHzt6zScY/ibHtq0j05IB1ut6HS15Bccs7OwIv9jJqhSRyV/kclj3IMIVdEiuXknpLLWuvDWupiYWHnnz++12n++L2++/a4qv/r62/L6f/xJikvOt9b1Yzg4XQboBxwI6+FgEBK2Iargbh0VFaUiFZZ1anT99derZ2QQHPJbCKWjtnACcad54YUX5De/+Y1kZmaquroPOKH4HggB9ZBWYhucGdswtQqwThuiG8QDYW7ZskWdWwgf0QzpAX6+pYWANuAIEGBYWJh6aIjvh2EboiqiG/qP44KwdD30y9cxIwICZ5+CxXBTwrnxtc2fwQdw49Nl7+1t1qIi1Ld7C+RcRYNvMeFCoZGOU7w2haKsHN8SVFNLhBoLNTdflMKTZfL5+m9l7abdsm7zbtm4LVfWb9krW745IF9+tUtq6+CA7dvVBvSJQPvOkwLglCjDWRABEMYRHZC24SRi1u2JJ56QZ599VhlmyvTdyVdbiGoTJkxQUQ7ixCwcUiw9rtH19LM3OC/qw2nh+Dp3VufCWq+/Aw4N0SEKff7556p/mHSA0yNNQ5+0EFBHiw3fgfpYD8O10Nv0d+vtqIdUw9cxwzG8+3S5G64DJgVwA4OhjHW+9vU2nGfcpHC9tI+5t1nnD4YgoM675T61jSFW2fID547aICQA5+pYmWiwWW7IyZKfLVsgSxfNlXvumCMP3nOLPHL/7fLYA4vk8eV3WWOlxfLMY0vluSfvl19YtuLZh+RXzz8qqYkdT3trB4ABLWys1w6EZTgr0lGka5988okaQCICwRnnzZsnCxYskGXLlqkZOoxV/LWFcI2Ihm0ADgsRwEnh9AD7IfKhbYyrcNIRBdAH/AQL63XKhW26fziXSL8Q0XBxkX4g6iBSYXJAHyPaR36P8ZWOLphd0tsQQdEviB3bMJEB0Gd/x4x01btPl7vhnON4ca5gKGOdr329DecZ5wuTbxCT9hVlUI/l8zfPuUqetMb9y+9doAzldmJCQxhU6ZwR67TDeRvU2SukWaZNyZIrs8bL5OwsmXTlRBk/boyMG5tpjYtGSUZ6qqSmJEtS4gg1dkpIGGSNORJUulJ8stStcF8GdL+wjL45tzmX4YB79+5VEQQOhpOBSQg4FQwiwp0JDuevLRz36tWrVfqHGTLMmEE4mN1DdNL10Pa6devklltuUQah/Pa3v1WiQJRB2nb11Ver+rgQuCBIzTZt2qSEBBFATABjNVw05zFC1Fj/8MMPq9k8ndbp7964caPce++9alYSbTn75euYkfp690kf++VquAEhsuhllLHOuU9HhnOEDAAZB86r9kP4a3gvl8yYni3ZkybKlMmTLL+/UiaMt1Ju6+7V6k022qlwV0RjOkr5Yt22fEnoHy33Ll5gfVGLlbbVWV/cKHWW89TV1Us9zOoI1jc14WK3Olattb66ukZOnC6XFleozJqWZrfYntdee03mzp2rUpW3335bnn76abUe4xA8QH3qqafUMsAsHpwH08IaOO2aNWtUCoa0FekgnL+jtpASwJnxiZMJcaEezgXSpuXLl6uLA2FiZgzPGyAS9BMREhQWFsrHH3+s6iKdA3/84x9V6qhnCpGS4fgQQZCi4tw428f0LmbicHHx6gtm6R577DFVF+KAcDDuQhuYBtfH4+uYEXF99Yn4BhEcY1ecM/gHohvW7T18QYYPjpeH7r9Tiau21vL5+gbl866lS5d6iAljDYgIF13ni/5YuzXPiniNluEub62wvgwXXtcJ7RVmjT/CVNmNrXwY9seddfb0dHsj6QrIGpB6QtwQJsZ4t912m5r2JubABBN8Gek50mec5735+D3qRZXqKR8WK22GP1v7uZYsWaLEhA2IShATwiGmZyGmjliz5ZCUnSuRmmpr0G0LCGMoLaaw8Ajrzo7XKzz0qhQeEhIqUbF9JDIqVq6/KsPeQroCxlr6h8cYB2CaHL8nw0NfYg74KQILfjKEjAfZwu6881JVXmplXVUYg6j9lM9b5lq8eLHydAgAuSEamDRpkhISxNURf/rsnDTVnpeLDZVWvVARSyAuVy9xhVqGZVeIij4oty6jjHWtL1ppls3pb5dIV8EDYzyfwjXDA0qMrZC+ErNATAgwGI8jOm0+0s/2+apWX9Y+H2LZXXfdZQWlFnVRkDZg8I78HcutYcw/HxVMsUvfj5tTvrZLhPQskNrBMJuLiaCi2PukWTyDgca1aNGiFkQgzF5AeUghdMpHCGmNThASHn0ATErBkM0hk9OEWuJZidk7zFzgpzFQIYTUWVQiJJjAeAlg5hbawMSZNyEQD6Z18XASsxcUEiGe6MwND34xDMI0OZ4FYkbVieuZZ55pQcjSD/8IIR2D+QT9EB2zqRokfFQQIQZwjR49mmIixAAua6xEMRFiAFdGRgbFRIgBXOnp6RQTIQZwpaamUkyEGMCVkpJCMRFiAFdycjLFRIgBXMOHD6eYCDGAa+jQoRQTIQZwDRkyhGIixAC+X8wghFwyrmHDhjEyEWIARiZCDMHZPEIMwchEiCFcI0aMYGQixACuxMREiokQA7iSkpIoJkIMwNfWCTEEf+hKiCFcOTk5FBMhBuDUOCGGoJgIMQTFRIghKCZCDEExEWIIiokQQ1BMhBiCYiLEEBQTIYagmAgxBMVEiCEoJkIMQTERYgiKiRBDUEyEGIJiIsQQFBMhhqCYCDEExUSIISgmQgxBMRFiCIqJEENQTIQYgmIixBAUEyGGoJgIMQTFRIghKCZCDEExEWIIiokQQ1BMhBiCYiLEEBQTIYagmAgxBMVEiCEoJkIMQTERYgiKiRBDUEyEGIJiIsQQFBMhhqCYCDEExUSIISgmQgxBMRFiCIqJEENQTIQYgmIixBAUEyGGoJgIMQTFRIghKCZCDEExEWIIiokQQ1BMhBiCYiLEEBQTIYagmAgxBMVEiCEoJkIMQTERYgiKiRBDuJKTk1vsMiHke8DIRIghKCZCDEExEWIIiokQQ7hycnI4AUGIARiZCDGEa+LEiYxMhHwPTr97WhKWJjAyEWIKiokQQ1BMhBiiy2OmBx98UMrLy1V5y5YtUlxcLPPmzZO4uDipqamRVatWycWLF9X2nk5ISEjA9l0TqNcjJiZG5s+fr/r5/vvvS2Vlpc/r0dLS0qOPx3kcv5zxSzVmCh08ePBKe7tfcLCjRo2S9957T3Jzc9VFTEtLk4iICHWQffv2VXb69Gm7Rs8mkPsOAvl6NDY2qj6jvwUFBVJfX++z77179+7Rx+M8ju1p2yX2b7FdS/OgQlzA2bNny/jx49W6fv36ydmzZ1W5tLRUBgwYoMqBQCD3HQTD9QjE4+mSmMLDw6W6ulrdSTIzMyU9PV1CQ0NVKNbg4gYKgdx3EAzXIxCPp0s9PHfunHz44YdSWFgoO3fulCFDhkhzc7O4XC57D1HLgUIg9x0Ew/UIxOPpkphwsWbOnKnK8fHxUlVVpS7owIED1bpBgwa5Q3IgEMh9B8FwPQLxeLokJgz8MAC88847ZcSIEWrgFRsbq3J3rMPB7t+/396753P48GF335EiBVLfQTBcD+e6QDmebv+cKCsrS3bt2mUvBS48jp5FIB5HQPycCCf2coDH0bP4oY6j50+REBIgUEyEGKKdmHyFwK6Gxa7W5XfwO8Dl8h0aRiZCDOFatmxZt2bzCCGtfPrzT2Xu7+aKKz09vdtiwo8RKyoq7KVL5+9dPy8vTz3X6C6Bfvysb7Y+0zxCDEExEWIIiokQQ1BMhBiCYiLEEBQTIYagmAgxBMVEiCEoJkIMgZfs+XMiQgwQ9D8ncv4FHPDCCy/YpVZWrFhhl1rhds/t+Nt93SXQ/ce7PsXkJSbSdSAsiqmtPsdMhBiCYiLEEEGf5q1cudJjXPBvv3veLhFf/OLnv7JLrWRkZNilSyfQ/ce7PiMTIYagmAgxBMXkRf++A1Uq421LF/6TvYcZpmdfLVdNzrGXyOVA0IvJ+zmKpvTcGfnsy/9z27adX9lbzKDElB3YYvJ+5hTshPbv37/Tf3bmD/wzKvyzqu7y966PPw6PCQgnO/Zsl+yJ06TkdLF8seETOWl9ws6dL5WUpDRZfs8TEhkRJTOnXitzZ82X4VckKuH9dME9MnvmHInv00/yjx5y79snro/kTL9erp1xg1WOlyNFBfL4g/8qUZHR0qtXL8mZNkt2fveNLLn9frlx9s1yIC9XamqrZZbV1k8XLLOOr05OnDpu9+7vD/qr2bBhg3z33Xf20qUT6P7jXZ9pnh9iY3tLZsZ4t4WFhdtbRMZkjJMjhflugd1xyxI5mL9PLpRfkKyx2ZKa1PZHWtJTMuXQ4X3Wvmdk0oSpllCnyrpNn0ljY4M0NTWqqNfQUCf7DrU6ZXJSqvpMHZmuHigfyM9Vy6TnQzH5YfDAIXLrvIVui46KsbeIcvzNX6+XLTs2qeXcg3tk0/YvZdu3rcsJVl3Ndwd2q23/s/q/1fLotHGye9+30nSxSf2P1h17tql/6Xggv1VMKYlpEhfbRwb2T5Dik8eksqr7U7fkxyXoxeQv7y8ozJN/f2Wl28ory+wtbTQ02CHe/qdcDVa0ARHhbVFMU2HVh3jiYuPsNZ6UV5TJiZLjMmLoSBmVmqnW7cvrfgr1Y+BvvBmsMDL5ASlWU1OT26wV9pbuER0Vrf61ZE1tjVpWzTn+Mx7Yb4kH4yjM8jW3NKvUkQQOFJMf+vTuK9kTprltVNoYe8ulgfHVjCnXyq03LlLL+UcOqs/qmkorgkXI7KvnWuOxMLVuvzU+gohjY+KkqLjQ2qdKrSeBgSs7Oztofza9Y8eOdj8nev3d38tDS//ZXmrjxKli2bRtrdxxy1L5etdW+WLDKkkdmSGLbr5bTZuv3bha0lNGy+033SVbd2yUY8VH1b5HiwosccSqcVBewX5Zve5jNfGAfefNmi/hlqDe/MsfpKz8gvqeu2+/30r1kuSTtR/Jru++Uet6Enjm5mTy5Ml2ifAVDK/0zdRv81pn+dqE11UgRoj092++6E4JexJOMfEVDM/6TPN6CIhc82bfrCLWvkN7eqSQSMdQTD2EhIGDZULmlVJcclzWbPrMXksCCYrpB6KgMF+ljF1N8Q4fPSQv/mGFvPtfb0gNJx4CkqAXE39f1n34nMkTRiZCDEExEWIIiokQQwS9mJj3dx+ONz1hZCLEEBQTIYagmAgxRNCLiXl/9+F40xNGJkIMQTERYgi+z8Q/j3xJ8H0m//B9ph/ofabLFb7P1IZ3faZ5hBiCYiLEEBQTIYYIejHxOVP34XMmTxiZCDEExUSIISgmQgwR9GJi3t99ON70hJGJEENQTIQYgmIixBBBLybm/d2H401PGJkIMQTFRIgh+D4T32e6JPg+k3/4PhPfZ7ok+D5TG971meYRYgiKiRBDUEyEGCLoxcTnTN2Hz5k8YWQixBAUEyGGoJgIMUTQi4l5f/fheNMTRiZCDEExEWIIiokQQwS9mJj3dx+ONz1hZCLEEBQTIYbg+0x8n0kxYcwkmT5ppsT36SdVNZWyZ99O2bx9vbS0NNt7tML3mfzD95n4PpNMmjBV5l53kypXVJVLbEychLhCZOfer2X1uv9V6zV8n6kN7/pM84KckJAQuWb6bFVet/kz+cNbL8kHH/1FLWeNmyx9evdVZdI5FFOQM6DfIImKjFblPft3qc+Cwjypqq4Ul8slw69IVOtI51BMQU5kRKRdEqmrq7FLIrV1teozKjJKfZLOCXoxBftzJkSfjuhoO58zecLIRIghKKYgx3s205vOtpM2KKYgp66+zi5Z4yd7IgJER7WW9diJdE7QiynY8/6z589YgmmdeJiQmaU+U5LSJSY6VkWl4pIitc4X/F2jJ4xMQU5zc7Ns3LZOlWfNnCOP3ve0LLx5sVreu3+nlJWfV2XSORQTkR27t8mqNX+Tc+dLJSYmVj1j+urr9fLJ2o/sPUhXoJiIYnfuDnn9z7+XF19eoX4FsX7LGhW1SNcJ+t/mef/QlVwaGRkZdunSCXT/8a7PyESIISgmQgzB95msNM+Jd8rnPf3L7Z7b+T5TG0E/ZrKO3166dAL9+FnfbH2meYQYgmIixBAUEyGGoJgIMQTFRIghKCZCjCDy/8tQ+BfNyi8rAAAAAElFTkSuQmCC;" vertex="1" parent="DkT8jsgZfTyul8J4btB_-46">
          <mxGeometry x="11.430000000000001" y="580" width="211" height="231" as="geometry" />
        </mxCell>
        <mxCell id="DkT8jsgZfTyul8J4btB_-104" style="edgeStyle=orthogonalEdgeStyle;rounded=0;orthogonalLoop=1;jettySize=auto;html=1;exitX=0.5;exitY=1;exitDx=0;exitDy=0;labelBackgroundColor=#B3FF66;fontColor=#CC0000;" edge="1" parent="DkT8jsgZfTyul8J4btB_-46" source="DkT8jsgZfTyul8J4btB_-14" target="DkT8jsgZfTyul8J4btB_-13">
          <mxGeometry relative="1" as="geometry" />
        </mxCell>
        <mxCell id="DkT8jsgZfTyul8J4btB_-105" value="&lt;b&gt;Create Widget&lt;/b&gt;" style="edgeLabel;html=1;align=center;verticalAlign=middle;resizable=0;points=[];fontColor=#CC0000;" vertex="1" connectable="0" parent="DkT8jsgZfTyul8J4btB_-104">
          <mxGeometry x="-0.8462" relative="1" as="geometry">
            <mxPoint as="offset" />
          </mxGeometry>
        </mxCell>
        <mxCell id="DkT8jsgZfTyul8J4btB_-84" value="" style="group;fillColor=#dae8fc;strokeColor=#6c8ebf;" vertex="1" connectable="0" parent="1">
          <mxGeometry x="670" y="200" width="120" height="330" as="geometry" />
        </mxCell>
        <mxCell id="DkT8jsgZfTyul8J4btB_-66" value="&lt;font color=&quot;#000000&quot;&gt;캐릭터&lt;/font&gt;" style="rounded=0;whiteSpace=wrap;html=1;labelBackgroundColor=#FFFFFF;fontColor=#CC0000;fillColor=none;" vertex="1" parent="DkT8jsgZfTyul8J4btB_-84">
          <mxGeometry width="120" height="30" as="geometry" />
        </mxCell>
        <mxCell id="DkT8jsgZfTyul8J4btB_-67" value="&lt;font color=&quot;#000000&quot;&gt;컴포넌트&lt;br&gt;&lt;/font&gt;" style="rounded=0;whiteSpace=wrap;html=1;labelBackgroundColor=#FFFFFF;fillColor=#dae8fc;strokeColor=#6c8ebf;" vertex="1" parent="DkT8jsgZfTyul8J4btB_-84">
          <mxGeometry y="70" width="120" height="30" as="geometry" />
        </mxCell>
        <mxCell id="DkT8jsgZfTyul8J4btB_-69" value="&lt;b&gt;&lt;font color=&quot;#cc0000&quot;&gt;이벤트&lt;/font&gt;&lt;/b&gt;" style="edgeStyle=orthogonalEdgeStyle;rounded=0;orthogonalLoop=1;jettySize=auto;html=1;exitX=0.5;exitY=1;exitDx=0;exitDy=0;entryX=0.5;entryY=0;entryDx=0;entryDy=0;labelBackgroundColor=#B3FF66;fontColor=#000000;" edge="1" parent="DkT8jsgZfTyul8J4btB_-84" source="DkT8jsgZfTyul8J4btB_-66" target="DkT8jsgZfTyul8J4btB_-67">
          <mxGeometry relative="1" as="geometry" />
        </mxCell>
        <mxCell id="DkT8jsgZfTyul8J4btB_-70" value="상위 위젯" style="rounded=0;whiteSpace=wrap;html=1;labelBackgroundColor=#FFFFFF;fontColor=#000000;fillColor=none;" vertex="1" parent="DkT8jsgZfTyul8J4btB_-84">
          <mxGeometry y="160" width="120" height="60" as="geometry" />
        </mxCell>
        <mxCell id="DkT8jsgZfTyul8J4btB_-72" value="&lt;b&gt;&lt;font color=&quot;#cc0000&quot;&gt;위젯 생성&lt;br&gt;/화면 등록&lt;/font&gt;&lt;/b&gt;" style="edgeStyle=orthogonalEdgeStyle;rounded=0;orthogonalLoop=1;jettySize=auto;html=1;exitX=0.5;exitY=1;exitDx=0;exitDy=0;entryX=0.5;entryY=0;entryDx=0;entryDy=0;labelBackgroundColor=#B3FF66;fontColor=#000000;" edge="1" parent="DkT8jsgZfTyul8J4btB_-84" source="DkT8jsgZfTyul8J4btB_-67" target="DkT8jsgZfTyul8J4btB_-70">
          <mxGeometry relative="1" as="geometry" />
        </mxCell>
        <mxCell id="DkT8jsgZfTyul8J4btB_-71" value="하위 위젯" style="rounded=0;whiteSpace=wrap;html=1;labelBackgroundColor=#FFFFFF;fontColor=#000000;fillColor=none;" vertex="1" parent="DkT8jsgZfTyul8J4btB_-84">
          <mxGeometry y="270" width="120" height="60" as="geometry" />
        </mxCell>
        <mxCell id="DkT8jsgZfTyul8J4btB_-73" value="&lt;b&gt;&lt;font color=&quot;#cc0000&quot;&gt;위젯 생성&lt;/font&gt;&lt;/b&gt;" style="edgeStyle=orthogonalEdgeStyle;rounded=0;orthogonalLoop=1;jettySize=auto;html=1;exitX=0.5;exitY=1;exitDx=0;exitDy=0;entryX=0.5;entryY=0;entryDx=0;entryDy=0;labelBackgroundColor=#B3FF66;fontColor=#000000;" edge="1" parent="DkT8jsgZfTyul8J4btB_-84" source="DkT8jsgZfTyul8J4btB_-70" target="DkT8jsgZfTyul8J4btB_-71">
          <mxGeometry relative="1" as="geometry" />
        </mxCell>
        <mxCell id="DkT8jsgZfTyul8J4btB_-85" value="&lt;font color=&quot;#000000&quot;&gt;데이터구조&lt;/font&gt;" style="swimlane;whiteSpace=wrap;html=1;labelBackgroundColor=#FFFFFF;fontColor=#CC0000;fillColor=none;" vertex="1" parent="1">
          <mxGeometry x="670" y="20" width="370" height="160" as="geometry" />
        </mxCell>
        <mxCell id="DkT8jsgZfTyul8J4btB_-83" value="" style="group;fillColor=#ffe6cc;strokeColor=#d79b00;" vertex="1" connectable="0" parent="DkT8jsgZfTyul8J4btB_-85">
          <mxGeometry x="10" y="30" width="350" height="120" as="geometry" />
        </mxCell>
        <mxCell id="DkT8jsgZfTyul8J4btB_-76" value="&lt;font color=&quot;#000000&quot;&gt;구조체1&lt;/font&gt;" style="rounded=0;whiteSpace=wrap;html=1;labelBackgroundColor=#FFFFFF;fontColor=#CC0000;fillColor=none;" vertex="1" parent="DkT8jsgZfTyul8J4btB_-83">
          <mxGeometry y="90" width="120" height="30" as="geometry" />
        </mxCell>
        <mxCell id="DkT8jsgZfTyul8J4btB_-77" value="&lt;font color=&quot;#000000&quot;&gt;구조체2&lt;br&gt;&lt;/font&gt;" style="rounded=0;whiteSpace=wrap;html=1;labelBackgroundColor=#FFFFFF;fontColor=#CC0000;fillColor=none;" vertex="1" parent="DkT8jsgZfTyul8J4btB_-83">
          <mxGeometry x="230" width="120" height="30" as="geometry" />
        </mxCell>
        <mxCell id="DkT8jsgZfTyul8J4btB_-78" value="&lt;font color=&quot;#000000&quot;&gt;데이터테이블&lt;/font&gt;" style="rounded=0;whiteSpace=wrap;html=1;labelBackgroundColor=#FFFFFF;fontColor=#CC0000;fillColor=none;" vertex="1" parent="DkT8jsgZfTyul8J4btB_-83">
          <mxGeometry x="230" y="90" width="120" height="30" as="geometry" />
        </mxCell>
        <mxCell id="DkT8jsgZfTyul8J4btB_-79" value="&lt;font color=&quot;#cc0000&quot;&gt;&lt;b&gt;구조 선택&lt;/b&gt;&lt;/font&gt;" style="edgeStyle=orthogonalEdgeStyle;rounded=0;orthogonalLoop=1;jettySize=auto;html=1;exitX=1;exitY=0.5;exitDx=0;exitDy=0;entryX=0;entryY=0.5;entryDx=0;entryDy=0;labelBackgroundColor=#B3FF66;fontColor=#000000;" edge="1" parent="DkT8jsgZfTyul8J4btB_-83" source="DkT8jsgZfTyul8J4btB_-76" target="DkT8jsgZfTyul8J4btB_-78">
          <mxGeometry relative="1" as="geometry" />
        </mxCell>
        <mxCell id="DkT8jsgZfTyul8J4btB_-80" value="&lt;font color=&quot;#cc0000&quot;&gt;&lt;b&gt;행이름/수량)&lt;/b&gt;&lt;/font&gt;" style="edgeStyle=orthogonalEdgeStyle;rounded=0;orthogonalLoop=1;jettySize=auto;html=1;exitX=0.5;exitY=1;exitDx=0;exitDy=0;entryX=0.25;entryY=0;entryDx=0;entryDy=0;labelBackgroundColor=#B3FF66;fontColor=#000000;" edge="1" parent="DkT8jsgZfTyul8J4btB_-83">
          <mxGeometry relative="1" as="geometry">
            <mxPoint x="291" y="30" as="sourcePoint" />
            <mxPoint x="261" y="90" as="targetPoint" />
            <Array as="points">
              <mxPoint x="291" y="50" />
              <mxPoint x="261" y="50" />
            </Array>
          </mxGeometry>
        </mxCell>
        <mxCell id="DkT8jsgZfTyul8J4btB_-90" style="edgeStyle=orthogonalEdgeStyle;rounded=0;orthogonalLoop=1;jettySize=auto;html=1;exitX=0.5;exitY=1;exitDx=0;exitDy=0;entryX=0.994;entryY=0.589;entryDx=0;entryDy=0;entryPerimeter=0;labelBackgroundColor=#B3FF66;fontColor=#CC0000;" edge="1" parent="1" source="DkT8jsgZfTyul8J4btB_-3" target="DkT8jsgZfTyul8J4btB_-13">
          <mxGeometry relative="1" as="geometry">
            <Array as="points">
              <mxPoint x="457" y="210" />
              <mxPoint x="580" y="210" />
              <mxPoint x="580" y="1016" />
            </Array>
          </mxGeometry>
        </mxCell>
        <mxCell id="DkT8jsgZfTyul8J4btB_-92" value="&lt;strong style=&quot;margin: 0px; padding: 0px; border: 0px; font-variant-numeric: inherit; font-variant-east-asian: inherit; font-stretch: inherit; line-height: inherit; font-family: -apple-system, BlinkMacSystemFont, &amp;quot;Segoe UI Adjusted&amp;quot;, &amp;quot;Segoe UI&amp;quot;, &amp;quot;Liberation Sans&amp;quot;, sans-serif; font-size: 15px; vertical-align: baseline; box-sizing: inherit; text-align: left;&quot;&gt;User Object List Entry&lt;/strong&gt;&lt;span style=&quot;font-family: -apple-system, BlinkMacSystemFont, &amp;quot;Segoe UI Adjusted&amp;quot;, &amp;quot;Segoe UI&amp;quot;, &amp;quot;Liberation Sans&amp;quot;, sans-serif; font-size: 15px; text-align: left;&quot;&gt;&amp;nbsp;interface&lt;br&gt;Implementation&lt;br&gt;&lt;/span&gt;" style="edgeLabel;html=1;align=center;verticalAlign=middle;resizable=0;points=[];fontColor=#CC0000;" vertex="1" connectable="0" parent="DkT8jsgZfTyul8J4btB_-90">
          <mxGeometry x="-0.2611" y="3" relative="1" as="geometry">
            <mxPoint x="-43" y="-2" as="offset" />
          </mxGeometry>
        </mxCell>
        <mxCell id="DkT8jsgZfTyul8J4btB_-91" style="edgeStyle=orthogonalEdgeStyle;rounded=0;orthogonalLoop=1;jettySize=auto;html=1;entryX=1;entryY=0.5;entryDx=0;entryDy=0;labelBackgroundColor=#B3FF66;fontColor=#CC0000;" edge="1" parent="1" source="DkT8jsgZfTyul8J4btB_-78" target="DkT8jsgZfTyul8J4btB_-71">
          <mxGeometry relative="1" as="geometry">
            <Array as="points">
              <mxPoint x="1010" y="500" />
            </Array>
          </mxGeometry>
        </mxCell>
        <mxCell id="DkT8jsgZfTyul8J4btB_-93" value="&lt;strong style=&quot;margin: 0px; padding: 0px; border: 0px; font-variant-numeric: inherit; font-variant-east-asian: inherit; font-stretch: inherit; line-height: inherit; font-family: -apple-system, BlinkMacSystemFont, &amp;quot;Segoe UI Adjusted&amp;quot;, &amp;quot;Segoe UI&amp;quot;, &amp;quot;Liberation Sans&amp;quot;, sans-serif; font-size: 15px; vertical-align: baseline; box-sizing: inherit; text-align: left;&quot;&gt;User Object List Entry&lt;/strong&gt;&lt;span style=&quot;font-family: -apple-system, BlinkMacSystemFont, &amp;quot;Segoe UI Adjusted&amp;quot;, &amp;quot;Segoe UI&amp;quot;, &amp;quot;Liberation Sans&amp;quot;, sans-serif; font-size: 15px; text-align: left;&quot;&gt;&amp;nbsp;interface&lt;br&gt;구현&lt;br&gt;&lt;/span&gt;" style="edgeLabel;html=1;align=center;verticalAlign=middle;resizable=0;points=[];fontColor=#CC0000;" vertex="1" connectable="0" parent="DkT8jsgZfTyul8J4btB_-91">
          <mxGeometry x="-0.4078" relative="1" as="geometry">
            <mxPoint y="9" as="offset" />
          </mxGeometry>
        </mxCell>
        <mxCell id="DkT8jsgZfTyul8J4btB_-95" value="" style="shape=image;verticalLabelPosition=bottom;labelBackgroundColor=default;verticalAlign=top;aspect=fixed;imageAspect=0;image=data:image/png,iVBORw0KGgoAAAANSUhEUgAAAR8AAACZCAYAAAAWyT48AAAgAElEQVR4nOy9eXgV53n3/5mZs29akYQ2tCKBWMViwOw7BGKwcRw7Tuq0ceLXSd2kb+s4rtumSdrmV9ddkjbLL4nj2K2TOHawE29sBmMDxuwIsQiEdokj6Ug6+zoz7x/yGZCRQMJsxvO5Ll1wZuZ+nmdGmu95tvu+BVVVVT6Ez+dj7dq1Hz6so3PTY7FYiEajDPJnrdHa2jrgc1paGna7ndbWVmRZRlEUIpEIdrt9wHWCIFzysyiKGI1GYrHYReeGsvmw3XBtksfNZjORSOSS1w1lF41Gh3X9UPWNxM5isRAOhwccN4yoFJ1bCr/ff6ObcNVJJBJEIpEB4iNJEmazGUmSLmmrqiqKoqAoCgCyLF9WcD78WVXVQe2Guv5CZFkekY0oipet71LlDVXftbBLtvNChhSfSCRCIpG45DeIzsebW/F3q6qq9pMk+XdstVoRRfEGtk7nQgYVH1VVh+wC6uh8HJFl+ZYU248z+teAjo7ODUEXHx0dnRuCLj46Ojo3BF18dHR0bgi6+Ojo6NwQdPHR0dG5IVy1TYZ2ux1VVQmFQkNeIwgCRqMRWZZHvFHJYrGwePFiPvWpT9Ha2soPfvADgsHgR222jo7ODeKq9HwEQeCHP/whTzzxxCW3bKelpXH//fczefJkbRfpcCkoKGDZsmWcPn2ap59+mvr6+o/abB0dnRvIiHs+kiQxduxYTpw4cdG5SCRCV1cX8+fPx+l0EovFSElJIRgMcurUKW6//XaWLFmCw+GgpaWF7u5u7HY75eXlWK1Wenp6aGpqQhRFKioqiEQiWK1WPB4PkyZNIj09nYMHDxIMBklNTSUzM5OioiKMRiPd3d20tLQQiURwOp2UlZVhtVrp7e2lqamJUCiEzWajpKSElJQU/H4/Z8+eJRAIkJKSQlFREXa7nVAoxJkzZwgEAlflAevo6AzOiMVn1apVQ4oPgNlsZv78+cyYMYOTJ0+Sk5ODy+Xiv/7rv5g0aRIGg4HCwkJcLhcej4d169YxY8YM2tvbcTgcvPHGG7S1tXH//fcjyzL19fW8++67FBcXYzKZqKqqoqamhng8zuc//3ny8vLwer1YLBZeeOEFTp06xbp165g2bRodHR24XC7efPNN9u7dy+LFi1m4cCHt7e1kZ2fz7rvvsn37dhYvXszs2bPp7u4mPz+fnTt38tvf/vayvkA6txZGoxFRFFEUhUQigcViGXB+OH5ekiRhsVhG5NslCAKiKF5U36VsLqzParWO2C5Z30h9wkRRHLK+SzGY3YjE5+6772bOnDm0tLRc9tpgMMgbb7yByWTiscceo6KighdeeIGxY8fyzjvvsGfPHmbOnMnixYvZvXs3mzZt4vOf/zxVVVV0dXWhqiodHR384Ac/IBqNYrVaqaysZPPmzezYsYPMzEyamprYuHEjkiTx0EMPUVhYiKIoLFy4kJdffpnNmzezbt06zGYz2dnZzJs3j7a2Nn7xi1/wwAMPUF1dTW1tLRUVFXi9Xp5++mmmT59OJBLB6/WSnp4+sies87EmkUhoXu2KohCPxwecH45XuyAIxOPxEXu1J+2Ga5M8Loqi5go1Uq/2oeq7nN1IXa+SIvlhu2GLzz333MPMmTOHXaHX66W1tRWz2Ywsy6SkpNDU1ISqqvT19SGKImVlZZjNZqZNm0Z5eTlZWVmEw2EMBgOKotDe3k5HRwd5eXmEQiFUVcXj8WgP3el0cvfddyPLMunp6RgMBvLy8jCZTOzcuZP29nZeeeUV/H4/EydOxOFwMH78eL75zW+SlZWFx+MhFAqxc+dOVq1axV/8xV/Q09PDK6+8onkMj+SbQefjje7Vfu3sRuTVfiF33303M2fOHLFHsCiKSJKkiUWy8qQSRiIRFEXhF7/4BS+++CLQ/+1TWVmpeSYbjUYMBoP27QD9805Lly5l+fLlPPHEE7S2tvKtb30LQRAIBAIoikJ6ejqdnZ2Ul5djNpu17vRLL73ET37yE6D/IaalpZGSksK//uu/Issyf/M3f8PDDz/Mo48+OuJJcR0dneFzSfGRJIlVq1YxZ86cq1JZIpEgEAiwaNEimpubqampoauriwcffJCioiLS09NpbW3lxIkTl51vMRqNSJLEmjVrkCSJcePGcfLkSQ4fPkxnZydf//rXee+997j99tvZuXMnGzduZP78+WzYsAGbzYbT6QTg7bff5s4770QURfbv368FS+ro6CAzM1Of99HRuUZcUnzKy8spKyujqalpwHG3233RtWfPnqW+vh5Zluns7CQWixEOh5EkiTNnztDU1ERPTw8bN26kuroak8lEd3c3//Iv/8LKlSspLS2ls7OT2tpaent7aWhoGBBxLhQKUVdXR3d3N6qqsm3bNtLT08nMzKSuro729nYCgQB9fX3827/9G6tWrSI/P5/XXnuNF154gVgsxtNPP83SpUupqKigp6eH9957j5qaGlRVZdGiRUydOpXa2lqeffZZotGoPuTS0bmGCIOFUfV6vSxcuHBEBamqSnNzMzabjbS0NPr6+rThj6qqtLe343K5cLlceL1egsEg6enp2O12IpEIvb29JBIJjEYjLpcLURTp6urC4XCQlpYG9E9i9/T0kJGRgc1mI5FI0NXVRSKRwGq1Eo/HMZlMpKWlEY1G6evrI5FIYLfbcblcGAwGYrEYPT09xONxJEnC6XTicDgIhUJ4vV4SiQRms5nU1FTMZvPVeco61w2r1XpRJMMkdrsdSZKGDKPa0tJCIpFAURRisdigq0GX+iyKIiaTiUgkMqI5n2SkxQ+HGb2UTbI+i8VCKBQa8ZyPzWa75IbgS9mNdHPvUHZXbYezIAiMGTNG+5yZmTng/IXn0tPTB6wkWSwWRo8efVGZBQUFAz7b7fYBcXUNBsOgdtD/RzjYkqDJZCInJ+ei4x8uW0dH59qi+3bp6OjcEHTx0dHRuSHo4qOjo3ND0MVHR0fnhqCLj46Ozg1BTxr4CeZW3EpgMpkuytuVRN+3dXMxqPgkHch0bm1uxd9x8p6uJEeX7tV+aa6bV/ut+Iepo3MpdK/24dldd692HZ1bHd2r/drZDebVrk846+jo3BBGLD6CIFBcXMyGDRsGPWe1Wq94Yi8ZYN5guD4dsmR3cLjtNZvNF7XNYrFc0vPdYDCM6Hkkx+L6sFfnVmfE4lNcXMwDDzww6DmLxcJjjz025MTZ5TCZTKxevZoZM2Zckf1IycrKYvr06cOeQLv33nuZPXv2gGNf/vKXKS4uHtJm/vz5ZGdnD7tNZWVl/Omf/il33HGHHs5D55ZmRF2M8ePHc88991y+UIOBgoICbDYbZrOZaDSKx+MhNzeXUChEc3MzoiiSl5eHwWDQgsd3dnYOKCcjI4P8/HxkWaatrY1gMEhubi4mk0nzyvV6vWRnZ+P1emlvbycej5Oenk5BQQGyLGuhNkaPHo3ZbMZqtRKNRmloaGD8+PFMnDgRr9dLfX09TqdzgF1PTw8pKSnk5+cjCMIlHU+dTieFhYWaV3x7ezsGg4HbbrsNq9XKO++8QzgcJjc3l9TUVC3So9Vqpbi4mHA4TDQaZerUqcRiMXbt2oWiKOTm5pKVlUUsFqO1tRWfz0d6ejr5+fkAtLe3a4H48/LysFqtdHV10d7ejtlsprCwELvdTm9vr/Z8dHRuBoYtPtXV1axevXpY11osFmbNmoUoivT09DBt2jSOHDmCoihkZmYiiiJer5fVq1dz8uRJJEmiurqarVu3amXYbDZWrVpFd3c3RqORMWPGsH//fhYtWkR3dzexWIwZM2awb98+DAYD48ePZ9euXXg8HlauXElPTw8Gg4Hi4mL27t3LggUL6OvrIxgMMnXqVDZu3IjdbsdisWCz2bDb7axYsYLe3l4MBgOlpaVs27aNGTNmkJ6eTldXlxbaYzBycnK488472b59O/n5+YwePZrW1lYtRIjZbCYrK4uZM2fi8XiYMmUKW7duxWq1cvfdd/Pqq6/i8/k0wTaZTBgMBubOnUtfXx9paWlkZmZy+PBhli5dit/vRxAExo4dy5tvvsnkyZPJzs4mGAwye/ZsnnvuOXJzc5k3bx7t7e1UVlaybds2urq6hvsr19G5pgxr2DVjxgyWLVuG0WgcUeGNjY289dZbxGIxotEoO3fupKenR/vWNhgMHDhwgK1btxIIBCgvL9dsCwoKqKysRJZlJEmitLSUlJQUAOrq6tiyZQsAfr+fd955h1gsRlZWFvn5+YwbN26AXWpqKoIgcObMGd566y18Ph+jR4+mrq6O1tZWzp49y6hRo7T6RFGktLSUoqIi7YV/++236enpueT9JhIJ3nvvPY4ePYrT6aSrq4uenh4OHjyI1+uloqKC7OxsZFkmJyeHMWPGIAgCkUiE/fv3c+LECVpaWjh9+jQdHR0oikJDQ4PWI8zNzaW0tJS0tDR27NjBtm3bqKurIyUlhcrKShwOB7IsU1paqsWydjgcdHV1cezYsRHHb9HRuZZctudTXV3N4sWLsdlsIyo4uU9ClmVCoRB+v187lhSxRCJBPB5HURT6+vpwOByavd1up6enh3PnziGKIqdPnyYYDCLLsmYTCoUIBALa3gyDwXCRXX19/QC7ZFbVDwtpcmhy7tw5BEGgoaFBa384HNbquxSxWEy7J2BAzOtkoCm3243b7Wbbtm20tbVht9u1ej5MZmYmc+fOZd++fdpzS+YWS9Zz7NgxcnJyiMfjnDt3Drfbze9+9zu6uroIh8MkEgmKiorIy8ujp6dHz/Kqc9NwWfE5evTooDm6RrrWP9iOU6vVisPhIBKJUFxczLFjx7QgZG1tbbhcLk0EHA7HsAK6t7W14XQ6aWhoIBaL4XK5Bm2rIAgoiqKteCXzhl1ol9zlmpqaSnt7Ozk5OSPOlJosI5FI0NnZSWFhIXV1dTidTrxe7yXnkUpKSohGo+zfv5+5c+eSk5NDR0cHs2bNwmq1YrPZWL9+PZs3byYWi+Hz+Thx4gTZ2dn4/X5mzJiBzWZj586dfO5znyMzM5OOjo4r2v2ro3O1uaz4JBIJEonEsApTVZVwOIyqqlovACAajSLLMqqqar0W6O8dbdiwgbS0NGprazl8+DALFiwgkUjgdrv54x//yNe//nVisRhHjx5l//79RKNRzT4cDmvlxmIxLX70q6++yte//nXi8Tg1NTXs3btXO59sTzwe1+Z35s2bx5YtW3jttdc0u9raWt58800OHTrE8uXLWblyJZ2dnRdN2EYiEW2TVyQS0e4rFouhKAoHDhzgnnvu4ec//znHjh1j9OjR/NVf/RVer5cXX3wRRVEGhM+Mx+Pa5rGamhrmzp3LI488gs/nw+1209PTw9atW/nqV7+Koihs3bqV9vZ2du/ezYoVK1i8eDEej4dnnnmGs2fPcuedd7JgwQJOnz6tpS7S0bkZGDSGs8/nY+3atde04uzsbD7zmc/wzDPP4Pf7r2ldOp8cLBYL0Wj0kiKrx3C+OWI437AdzpFIhFOnTg27V6Wjo3NrccN8u7xeL5s3b75R1evoXITu1X5pbmiudh2dWxndq314drpXu47OVUb3ar92drpXu46Ozk2DLj46Ojo3BF18dHR0bgjXXXwsFgvl5eWMGjVKG0MWFRUNK+yExWKhqKhoyF3BkiSRlpY2olAUKSkpVFVVUVRUpIew0NG5jlx38UlPT2ft2rXMmzdPW1pcunTpgFzuQ5GZmcns2bOH9C5PTU1lzpw5w44nZDQamTRpEpMnT8bpdA7wxdLR0bm2XPfVruRaf3l5OQcOHKCpqYnRo0ezdetWjEYjFRUVjB07FlmWeeeddwZ4kjscDuLxONFolDvuuIP29nby8/MJBoMcO3aM6dOnM336dOLxOJs3byY3N1cLTHbkyBGamppYu3Ytfr8fSZLo7e3VQk60trbicDiYN28eZrOZjo4O9u7di8lkYurUqeTk5BAKhdi8eTOCIFBeXk5FRQXxeJx33nkHr9fL2LFjmTJlCtFolEOHDtHc3Hy9H6+OzseG6/5Vnwx25fF4qKys1OLcdHd3U1ZWxoQJEzh+/DiJRIL58+cPsE2KTyKRYNasWZpXd2ZmJjk5OQSDQc6cOcOJEyewWCysX7+elpYW/H4/lZWVOJ1ObrvtNjweDzU1NXi9XtxuNzU1NQSDQaqrq2lra6OmpoaysjIKCgqYM2cOTqeTAwcOUFJSQkVFBWPGjKG6uppTp07hcDiorKzEYDCwfv16jh49Sl9fHyUlJVcc0VFH55PAde35JGM8x+Nx9u/fz6pVq6ivrycSiaAoCmPGjKGjo4NTp04hyzIrVqwYYO90OjWfG1mWqampwWazEY1Ggf59Dx0dHbjdbiZNmkRJSQmBQIDU1FS6u7vJzMwkFotx7NgxFEXBarUSDAZpb28nFotRW1vLuHHjGDNmDCkpKWRlZZGens7+/ftpaGjgf/7nf4D+0KilpaWIokh+fj59fX2oqorZbGbChAkcOHCAtrY2PWqgjs4luK7iYzAYcDgcBINBTp48yezZs1mzZg0dHR1aOFW32w30O556PB7NVpIk7HY7wWAQp9NJd3c3sixrdj6fj9LSUlpbW7VgXQcOHGDnzp0IgkAgEGDUqFF4PB5tE5nFYsFgMBAIBCgqKuK+++5j27ZtRCIRioqKtB2vSUfBaDSqBbl/7733qK2tRRAEent7EUWRf//3f6eqqoq1a9eyf/9+du/efT0fr47Ox4rrOuwyGo1YrVa8Xi+qqrJz506Kioq0nofP5yM3N5eysjLGjRvHvn37NNukUASDQS2sKfQLms1mw+fzaeULgkBrays2mw1BEDAYDKiqSlpamiZoSU/bZHCxvLw8GhoaaGlp0eza29uB/giClZWVfPnLX0ZRFHp6ejCbzQiCgMlkIhaLMXv2bJYtW0ZXVxfNzc3Dij2ko/NJ5rqKj6qqdHZ2aiEN6uvrefvttzl+/DiRSISamhoApkyZwt69e2lsbBxg39bWxrlz5wgGgxw/fhzoj3/T2NiI1+ultraW1NRUTCYTx44do7GxkdmzZ1NSUqIJ18mTJwG03lBdXR2yLHPq1CkikQgzZszQhmAdHR3U1NSQn59PRUUFv/3tb4lEIhw9epREIsFtt91GdnY2giBw8OBBVFVlxowZeDweamtrr+OT1dH5+HHD4vno6FwLPko8n9OnT5NIJDQfr8Fyul3Khyrp6DmcXu+F5STtRurblXTYTCQSI86VZzAYRuyjlbS7kjA4g9npjqU6Oh9gNBo1J8h4PI7JZLromkuJ0YXD8KEYyqvdaDQOaXcp8TGbzVoEzZF6tScXaobLh+sbCRaL5SI7XXx0dD5AkiSt15PsjYw0kmHyG36kkQxNJtMVebUbjcZLhvAYqjyTyTTiHkzS7kpCcQxmp2/p1dHRuSHo4qOjo3ND0IddOqiqOqIsJTcCSZK0ORmdWwNdfHSIxWKUlJQwceJEzGbzjW7ORUSjUWpqajh79uxN2T6dK0MXHx1isRjLly9n2bJlWmjOm4VkcsctW7bwox/96EY3R+cqoouPDqqq4nQ6b9qhV9ItRw95cmuhi48OcD54+s3U60lyYVB3nVsHXXx0gIszN9xM6JPMtya6+OgAN3fPR1XVm7JdOh8NXXx0NBRFuSJ/H4C+vj4OHTrEokWLBhz3+/28//77LFmy5IrblXR50Lm10GfwdIDzPR9Zlgf9ef3113n//feHPN/c3My//Mu/XHS8ra2N7373u0PaDfdHF59bD73nowOcz7Q52JxPb28vzzzzDOnp6UydOnVQ+6Tdh+2TovFR5pKSw8FrLUB6rvZLo+dq17kmXNjr+TCHDh3CZrNx6NAhOjo6yMrKAuDcuXO8+OKL1NfXU1xcrAlYT08Pr776KocPHyY3N1eLCHmlJPf6XGv0XO3Ds9NztetcVS4cdn2Y999/n9mzZyNJEtu3b2fDhg3Isswf/vAHQqEQX/3qV3n55ZeB/uBuu3fv5tSpU3zxi19kz549A/J0b926le9///uDtmHJkiV861vfuuj49dr4qOdqv3Z2eq52nSEZar6ntbWV5uZmJk2axMqVK9myZQvxeBy3243b7WbmzJkUFhaydOlSALxeL42NjVRVVVFRUcG8efMwGo1aeYsWLeJzn/sc4XAYn8+Hz+fD7/dTUVHBo48+OmgbEonETbkFQOejofd8dIDzzqUf7oonM33U1dVhtVppbm7mzJkzmpOnJEnE43GtxxCJRLRAXPF4XJssvrDce++9l1AoxAsvvEA4HGb69Ok89dRTIx526Hy80cVHBzg/XLiwaxyLxTTRaW9v15Il7t69m+XLlyMIAp2dnYTDYdra2oB+73Oz2UxnZyfBYJBz584NOpx74IEHUFWVtrY2nnjiiUt25YeaCNf5eKOLjw4w+A7n9vZ2+vr6+NSnPqWtcu3fv5+NGzeyevVqKioqOHToEO3t7VqvxWw2U1FRwbZt23j++eeBod0j/uRP/kQ7fylu1s2POh8NXXx0gPNzPhc6ljocDpYvX66tWAFUVFTw6U9/GlEUmTFjBunp6fh8PgoKCigvL0dRFCoqKjCZTPT09JCdna3lQLtSbjZPe52rgy4+OsDgwy673U5ZWRlwfoXDZDIxZcoUoH+IVVVVpV2fn5+PLMsYjUbGjh2rHS8uLv5IS+03q8+ZzkdDFx8d4OZ2LL0Z26Tz0dHFR0fjZhUf3b3i1kQXHx3g5u756F7ttya6+OgAN7f46Ktdtya6+OgA53sXuvjoXC908dFBFEU6OjooLy8nJSXlRjfnIpLuHNdaGHWv9ktztb3aBXWQrxSfz8fatWtHXIHOxw+Px0NjYyNOp5P09PSbMki7oij09PTg9/sv277knqBL9ZQu8q42GBBFkUQiodnJsozBcGXfzVfbHeRWdS/Rez6fcOLxOFarFZfLdVNmrkjicrlwuVw3uhk6VxFdfHS07vTVQDWoqCYVMSzCLThNoxpUVKsKCfrvUeeK0cVHB+ifcI6VxJC6JSSfdGWFCBC8LYjvLi/Zf5ODGLr2L6cqqSh2BTEsIsTPD09UUSVeEsPQZhxSJFSjimL5wDYxjKGNAIEFAXq/2INji4OU51MRY7oAXSm6+Ohoq1ydT7hJeS4V+zb7lRUkfrBqdkGZ1xo5QyawPIBtjw3jWaN2XDWrnPvuOUZ9OwvzicFTLMfz4oRnhLG9Y8PQfplXQej/8S/w4/ijk5Rfp4AKCjff6uDHBV18dM6nzfng//HRcULzg4h9EoncBNb3rcipMrGqKIYGI7adNmLlMRIFCRSXjCqBfbMdqVvqn7BNludUCc8Lk8iLYzxjwrrLSqwyRiI/jmJTUe0K9k0OIlMiJEYnMB8xYzlkQXEohOd+YHfWhPVdK7GKGIm8BKpFQUlRsO2wY2g14FvjI/BpP/FRcVy/cWkiosWONiqEbguh2BTk7ASqScW+2YEQFPCt9RGaGyLhSuB6wYVqUAktC6JYVMxHzJhPmgnPCaMaVeQ0GalPIjoxgpCAaIkFySMRnhMmkR9HOmfAvtmOEBJQ7Srh6WHiY+NInRL2N+0IskCsIkZkRhghJGLbaUNyS7fk0HS46H1GnfOrQx/8G8uN0fd5L7JdJj46Ts+fe4hURhA7Rbyf9RKeEiY8I4x/lR81BtHKCL0P9WrlqIAiKvjX+/rtzkn41/gJzQ4RnhbGvzqAmlAJTQ3T/TddJFITqIKCb52PaFEU/zof0XERxM4P7OaEiEwN41/r729fXpy+L/Wiyipit4jgFxA9IoTP30t/O1QUg0JwXpDg0gAEBaKlMXof7IU4iB4Rwddvq6gKvV/rIZGWgAgEVgeITIwQWOUnPDWM1CkidooIQQGxR4QgBJYGiFZEEN0i/hV+AksDqIJKaE6Q4KIggh9C84IEVgWIZ8Xxfq6vv/1FMfwr/ChWZWB7P2E/VyQ+aWlpzJw58yq/Ajo3kuTLmvxXDAjYXrNhe92GYlaw7LVg3+jA0GIgOimKalQwnjVi/4Md189SCK4OIKfImojFc+KEb4sg9omIPSJCWCA0L4QqqhgbDNj/aMe+yU50bAz7K3Zsb9oREgKR2yJEZkYQfGK/OIQEQvP77QzNBmyv2XFsdBCaE0JNqJgPmjG0GDEfNSN6xAF/3ED/PUkqxhMmbK/ZcGx09AtRAEw1JoxNRsxHzCRGJwjPCmM4a0TsFZFdMpHxEVRJxfKeBesWG+YDZqR2A8ZaE1KrhHWHBeevXFg32zDVmgjPCiOnyEQmRzGdMmF/0YHjN05UUSVSHSFemEBqMyD2iUSmR5Bt8g0XgI+V+JjNZu677z4KCwsHPffggw9iNl88xhYEgaqqKpYtWzbiFyM/P5+FCxcCUFhYSE5OzrBWZ5LxaMaMGTPg+OOPP37JjVKTJk3Cbh/+vMfYsWN55JFHtDjGHzcGvKwf/F+ICwgBAdEnInr7ewhqQtVeTFUFISRABAwNBohDIifxgXiBnC6juGRCC0L4PudDzpQR+0RQVYRwv53oEREDAoJPgCgQg3huHNklE5o/0E6rLwxCn4Bi6+81KOoQvQfl/P2AihDor0PsEVGcF9vER8dRzSqBOwIE1gVQrApCUOivNyCgyuefUbLcSFUU9/9/jvY32vD/iQ/VrCBbZRSzgtglQhTM+8zYXrERL4yTGB3Hv8FPZHoEIdL/PG+0ANzInxHP+XzjG9/AarXidrsvOieKIvn5+YMKgyAIOBwOMjIyRlSfIAi0t7fT2dkJwMSJE+nr66O7u/uyE5qSJJGRkXHRztGSkpJLiteSJUvo7u4mGAxetm2qqjJ//nwOHDjAvn37hnlXHx9UVR0wLyGoAmrygKSCSP/wwaIieAX44Ncr+kQkj4TrRymYak0ggWJRCNzvH7JsVBADH9j9zIXpqBmk/slj/30X2A02UTLMfXiD2aqC2r/K1ysx6uFR/StfIv29mNkRrY0X2ibyEgTXBbUzx9YAACAASURBVHH90oXtdTv+z/qJVUcRIgJCXEC1KyBCYlQCOVtGOidh2Wsl4/EMUPvrFJRbc/PgcBm2+JjNZr7+9a8Pa2t1sseRl5eH0+lElmV+/OMfIwgCJSUlPPzww7hcLl566SXOnj3LwoULmT17Nl6vl61bt9LT08NnPvMZVFXl5MmTdHR0MGvWLHbv3s306dOx2WxEo1EOHTrEypUrmTp1Kl1dXWzatInm5maWLFnC/Pnz8Xq9RKPRQdtoMpmYNm0aU6dORRRFTCYTzz77LIsWLaKsrIx169axceNGnE4nS5cuJSMjg4MHD7JlyxbmzJnDnDlzOH36NIlEgvHjx1NUVER7ezs+n4/Vq1dTXFxMR0cHL774Il6vl9WrVzN16lR6enrYtGkTZ8+eZfr06SxduhRFUdixYwfvv/8+kydPZtGiRTgcDvbs2cOWLVuG/9u8lgzyAkarYoTnhYlWRzEdMWNoNxAv6Q+namgxIDUaCK4MolgUlHQFsVvsn9T+UJkXliu1SqhmA8HlIRSTqtkNNTMrxASEhEBsbAzjSSNiQBzYzg+ZXdh+ISSAUSVeFsfyjgXRLeL7gg/zETOKS0Hqkj5s3P+PqiIk+nuFskshMi1CeHEI0d8/xDSeNBKZHEX0SISWhDA0GbBttxFaEiLwqQBSrwQyWA5YEKKfXAEalvikp6fz2c9+FpvNNuyCrVYrNTU17N69my996UtUV1eTSCRwu90899xzLFy4kMrKSgRBYOXKlfzwhz+ktLSUyZMns3fvXiwWC88++yydnZ2MHz8egBMnTnDo0CF6e3s5fPgwJSUlVFdX86tf/YqpU6dq182cOZN//ud/xm63c9dddw3ZRpPJREdHBxs3bmTNmjVMnDiR559/nry8PF555RVCoRArVqzg+PHjnDlzhm984xscPXoUURSpr69n48aNJBIJcnNz2bFjB42NjeTl5dHY2Mibb77Jhg0bKCkpwev1Mn78eJ588kkqKirIzc0lFouxfPlynn/+eUwmE6tWraK5uZmxY8eyf/9+Tp48yZo1a5Ak6SNFARwOyW6w+V0LYruIGBExv2Ppf8m8AqZ9ZgR//3XG40ZUk4qcK4MMkRlhVCOkfie1fwLYLWLeZ4IQOH/pJLg2SGCDH6ndgO01G8Y6A6qxvyyxS8Syw9rfAwqBscaIocGA5V1Lv92dASS3hO2PNgynjagfTNAKAQHbG7b+/3sELG+biVfESaQnMPo/WG5PgHmHBbFbxFhjROroX4kTfP1zWaqqIjVLmPaZiefGMRvMpH07Hf9n/QTWBTCdMGE4Y8C8z4TYJWhDOdM+E1KbhOAWsP7BSnhZmERWAvuLDuTRiX5R2WpBRSW0JIjUZMDxnANBFnD+0kloWaj//dhuRZXVoTT1E8FlxSc7O5s1a9aQnZ09ooLj8TjBYBBZlvF4PDidTjweD8FgkFgshs/nIzc3l8LCQkKhEBMnTsRqtdLX14ckSYTDYcLh8CXrGDNmDLIsa7Zer5fRo0fT1tZGKBTCaDTi9XqHtE8kEgSDQeLxOF6vF6fTOeC8y+XCbDaTn5+P3W6nrq4Os9mMLMuEQqFB3REURcFkMjFx4kTsdjs2m43U1FSampqIRCIcO3YMURQZP348iUSCqqoqbWipKAqnTp2iuLiYyZMnc/jw4QHzDNcSVVVx/ei8+4Lrhy5UVKQOCecv+5+Litr/4lpU/H/mx3TMhOu/ztuoqBhPGDGe6BcAsVPE+YuBz9R4xnj+2jojKU+l9E9w94nYN56fZ3M+PbSd2C2S9jfpqKgIEQHrmzasb55vAwBRSPmPfidZQ71BOye5JdIfzei39QvYXxw4t5f6ZOqAz45nzt87Mjh/db5dlt0WLLsHDulVVESviP0lO/aXBpZt3mPGvMd80fWfVC4rPlarlfr6eurr6wccT87BDAdVVQfN7Aj9ecDj8TjvvfeelhbXZDINWZaiKEiShCAIeDweAoEA7733npY2NicnB5fLhcFguKTH76VI1hEKhQiFQpw8eZIzZ87gdDrp7u4mLy9vUDuj0cj48ePJyspi165dVFZWAtDd3U1FRQUGg4Hs7GysVqsmwvv27SMajWIymQgGg0SjUQ4fPozT6eS+++6jrq6OQCAw4nvQ0bnZuaz4NDY20tjYeM0acPbsWc6ePcvy5cuJxWKcPn36ksLmdruZPn06ra2tnD59mnHjxrFs2TLi8ThHjhyhpaWFnp4ePvvZzxKNRq/II9jtdjN79my2bt3K6dOnGTt2LMXFxSQSCd58880h7RRFwefzUVFRwZQpU7BYLEiSxJkzZ6iqquLuu+8G4Pjx49TV1VFXV8fixYuJxWJ0dnayf/9+srKyKCoqQpZlGhoaRpxP+0oZUQ8rCrbf2UZup6NzAVc1pIYoiuTm5uJ2u3E6nUSjUYLBIOnp6VqMFLPZjMfjweFwYDKZ6Ovrw+Fw4HK5UFUVn89HJBIhPT2d7u5uZFnGarXicDjo6urCarWSnp5OX18fwWCQ1NRUHA4HiqLg9Xq1Y0kv7VgsRiAQIBKJaO0sKSmhqakJu92OKIr09fXhcrmQJIne3l7S0tKwWCx0d3cjiiJpaWkYDAYSiQSdnZ04HA7NDvqHpj6fj3A4jNVqJSMjQ5unCQaD+Hw+UlJScLlcxGIx+vr6iEaj2O120tLSAAiFQvT29mrDNEmS8Pv99Pb2XtEvdricO3eOzs7Oi4acOjrXGj2ezyecS4lPVlYW69evZ9WqVYwaNeqWjSujc2PQfbt0hqSqqoo77rgDp9OJoii6+OhcVXTx0Rly3iY5LAwGg4RCoevapnA4zK5duy7aNa6qKvv27aOiouKmDPmqM3x08dEBLj1xnEylfD0nl7u7u/nOd76judVcSHt7O4WFhSNygdG5+dDFR+eyJIdbV3vYNdgWjOHUqc9H3hro4qMzImpra3n11Vf55je/ic/n4+c//zl33XUXY8aMYfv27fzhD3/Abrezfv16qqur6ejo4Je//CVut5sFCxawbNkyXn/9dTo6OvB6vTz66KO0tLTw3HPPEYvFWLlyJXPnztXqe/7553n//feprq5m3bp1uFwu/umf/om77rqLioqKG/gkdD4qejwfnRERCARoaGgA+neINzY2EolE8Hq9PPXUU3zpS19izpw5bNmyhcbGRp566ikmTJjAX//1X3PkyBF27dpFc3MziUSChx56CFEU+bu/+zsWLFjAhg0b2LFjB0eOHNHqM5lMPPzww9TX17N9+3agf2/Y9Z6D0rn66D0fnauCIAjarvPbbruN2bNn09zcTFdXF7Isc/DgQc0nTlVVJk2aRE5ODrt27cJqtbJs2TJkWebAgQPU19dr7jwbNmxAlmWmTZtGXV3dZV1udD4+XNeejyRJLFiwgK997WtkZmYCUFxczN///d9f03qrqqpYv379gHAeVquV1atX861vfYvHHnuMefPmYTKZyMrK4m//9m+HLMtqtTJr1iwcDsdF55588skhnW8tFguzZ88e1G4o5s6dy3e/+12WL18+bJtrzVChSOx2O0888QTbt2/ne9/7Hjt37qS3t5dEIkFdXR1nzpwhLS2N0tLSAXZer5fU1FStbIvFQjQaHeA3J0kSNpsNWZaHjFKg8/HjhvR8ysvLqaqqYvfu3QOOG41GUlNTsVgsRCIRPB4PZrOZtLQ0zd8qGAxiNpsxmUx0dnYSjUYxGAykpqZitVq1ncKKopCenq4tF0vSwPAIo0aNoqKigh/84AdYLBY+/elPU1tbe1F70tLSMJvNhMNhza9rzpw59PT0cPbs2YucS0VRJCUlBavViiRJKIqC2+0mNzdXs6uvr9fu1WAwaLu1XS6XFi4EYPHixWzbto09e/ZgMplITU3FbDYTiUTo7u4G0HZ4R6NRzU/O4XCQmpqKoij09fVd1SFKamoq8Xgcn883oOyuri5aW1v5q7/6Kw4ePMi2bduYO3cuTqdT8+4PBAKEw2GOHj2qlVdSUoLb7aarqwuDwYDH46GiokLz72tpaSEzMxO3243NZhsyq6fOx4/rLj6KotDS0kJBQQG5ubkDVjNycnKYNWsWBoMBp9PJxo0bycjI4K677uLIkSMUFBTQ29tLOBwmPz+fw4cPs2fPHgoLC7ntttv6b8hg4LXXXiMajbJ+/XrC4fCAFzpJIpEgGo1SUlJCa2srW7ZsIRgMantHRFFk7NixTJ48GUVRsFqtvP7665SXl5OZmUlJSQkdHR34/f4B5ZrNZmbNmkVWVhY+n4+CggJ+97vfMXbsWM2uq6uLSZMmMXr0aKA/O+amTZuYO3cuBQUFHD58GEEQSElJobi4mNraWhwOB9OnT8dgMOByufjNb36DKIqsXr0aRVEwGAzs3buXlpYWVq1apWXhbG1tZdeuXVctIWBWVhYFBQU8/fTTuFwuzek1Wb/b7SYSiZCfn09VVRXt7e38/ve/JyMjA6vVyqRJkwaUV1ZWxrRp03j22WcxGo1aRABJkkhPT2fLli3EYjG6urpYsmSJLj63EDek59PU1ERvby9Tpkzh1KlTQP+cQTwep7GxEb/fz5o1a8jPzyccDhOLxdi0aROzZs2irKyMrVu3Mnr0aFavXs2BAwcYP348KSkpHDp0iAULFmihNpIBwiZOnEh5efmANnR3d7N3715KS0spKyujqalpQHRGu91OaWkpDQ0NvP/++6xatYrbb7+d7du3U1RUxIEDBy4SniQGg4GmpiZ27NjBZz7zGcaNG8eePXsoKSnhwIEDmM1mpkyZwokTJ+jt7WXt2rUcPHgQQRA4ffo0e/fuRVEUFi5cyK5du+ju7sZsNmsTrXfeeSd5eXk4HA4kSeKFF16gtLQUWZYZM2YM06dPZ+PGjaSnp1NZWcnRo0evmo+Y0+nkC1/4Ao2NjWRkZDBu3DhGjx6Ny+XiK1/5Ck1NTRgMBkpLS8nOzmb9+vXU1tbi9/vJyMggLy+PtWvXakMtg8HAF7/4RY4fP46iKBQVFZGfn08sFuPRRx/F5XLR0dHB7bffPuB3qO+2/vhzQ8RHlmX27dvHXXfdxdixY4H+cX1WVhZjxoyho6MD6F/pCIfDRCIR4vE4kUiEnp4eLR5Q8uWzWCxayNP9+/fj8XgoLy+ns7OTeDxONBq9KD+3xWKhsbGR+vp68vPzWbBgAW1tbdpGOpPJhCRJ+Hw+ZFnm3LlzTJs2bdj3F41GURSFYDB4UVgPu91OLBYjkUggCAJvvfUW4XB4gN2FJENxjBkzhnPnzqEoijYc7enpIR6PU1dXB8D06dPp7e3PJJEMN/tRPeMvjLsLUFRURFFR0YBrFEWhuLiY4uLii+71w8kGkr3L5H2mpaVx++23D7jGbDYzY8YMAG1JXVVVOjs7iUQiuFyu65IXTOfaccNWu7xeL++88w4PPPAAsVgMk8lEYWEhfr+fU6dOMXPmzMt+uyV7S8k5npqaGhwOB729vTidTiZMmIDRaMRms10kAPn5+UyaNImXX36ZpqYmLBYLBoNBe1GTwcJGjRqFwWCgrKxMCy2iqipGo/Gi9lwOVVW1OR5FUWhqaqKlpYWMjIxLBj2zWCwUFBTQ09NDXV0d8+fP1wKQzZ49G5PJxJQpU4hEInR1dWGz2Thx4gSyLA8Q5su1bahjBoNh0KQA15vGxkb+4z/+g4kTJ1JYWKgPwT7m3NCl9vr6eg4ePMiECROIRqN0dHSwevVqysvLMZlMw3rBY7EYNTU1rFixgm984xv4fD5+/etfc+rUKaqrq3nsscfw+Xy0t7cPsGtqaqKsrIxvfOMbCILAoUOH8Hg8uFz9kfnC4TCHDx9m+fLlzJs3j5aWFnbs2KGFulixYgUvv/zysIcz0WgUr9fLqlWr2LhxI3v27OHTn/40FouF1tZWXnnllSFtw+EwnZ2dLFmyhPHjxyMIAmazmePHj1NeXs43v/lN2tvbefPNN+no6OCtt97ikUceIRaLcejQIbZv335Fcz69vb20traSk5MzohC614qMjAyee+65G90MnauEHlLjE865c+dwu92DbgFISUlh/vz5zJ8/n7S0NH2eReeqoovPJ5xLiY+OzrVE3+GsM2AyWUfneqH7duno6NwQ9J6PzoiRZRlJkhg/fjwZGRkcO3aMzs5ObUc3fJCXSxQv2lmuo5NEF59PMH6/f0Bg/eEgyzJZWVnMmzePyspKxowZg9vt5o033qCrq4uCggLy8/Npampi165dQ4ZflcZEMU4OIZVEb3j/W+mVkE9Zie2zQ1yfVL9eDCk+kUiERCKhzwXcwlzJXI8kSdxxxx3akr/VasVms/EXf/EXpKSkUFVVhc/n43/+53/Yu3fvRZs7kxjGxEmdaCYoRM7vJxKNGEUjETmCql7ZBkIBAbPBikkyAypROUosESHTlsNPVv+B//PGHXQG2wdc/9iS73Ogdi+vHt1FIj6855HMHZeM8JiamorP5xuw8dFqtfLiiy/yhS98AY/HM2g5JpMJWZaRZRmz2XzRfjS/3z9kxlpBEDAYDMiy/LHccDmo+KiqOuQfjc4nG1VVsVgsFBUVaU67ZrOZRCKByWRCUfpTGidTIw2VO21UXjrP3vMKD/xhGT3h/jxt8wtXMbdwBT898E+4g21X1L6ClFL+dMr/pTRtHIoic8i9hxdPPE00MXgoDhWV/2/3/wVAFrKB4Q0Tx40bR1FREe+++y59fX0cPXqUuXPn0tzcrF0TDof51Kc+dcly7r//fo4ePcr+/fu57777ePjhh7XstQB//ud/Tmtr66C2drudNWvWsH//fs6cOTOsdt9M6MMunRGhqirxeJycnBy2bNmCIAgsWrSILVu2YDab6ezsxOv1YjKZsFqtQ/q/XY4s22iqsqZhEs00euuo6zmGWbJQnj6B0Y4CesLdHHbvIdOaTUXmJCKJMOcCrXxp6l9zLtjKk3sexWFM4f6JX+XTYz/Hq3W/BqA8fQJTc2bTE+7mWOc+wokQk7Jn0hvupk4Ik5KeTnV1NYIgcOrUKVpbW3E4HEyePJmUlBRaWlpob29n+fLlTJ48GVVV2bJly6D3YDAYWLJkCTt27ECWZcaOHUtRURGBQICjR49SXFzMPffcQ3FxsZYD7qWXXuIHP/iBFi1AFEUKCwvJy8tDEARcLhc1NTW0tbUxb948PvOZz5Cenk4sFiMvL494PK7ltfN4PNTX1zN69Gjy8/Opra29qYKw6eKjM2xUVdVCe5w8eRKz2UxhYSHHjx/n0KFDlJaWav5xmZmZpKamDnDWHS4mycw947+MJEpEEmHmj1nFLw49Sb6rmLmFK/BHvRSnVmCSTNiNTr4y7Vv8se55rAY7Y1LK+dGB7xGM+QnG/Oxu3crK0g1kO3IBmJ2/mGDMz7LicaRbM9lU/xIbxv0Zh8/tocn0No987RGt91ZVVcVLL73E8uXLKSkpobu7m0WLFrF582bS09NxuVxkZmYOOaluMpn4h3/4B9auXYvNZuPLX/4yHR0d5OTkMGrUKKLRqJZkMunvZjabtXTf8XicRCLBrFmzuOOOO3j77beprKxkxowZ/OM//iOjRo3C4XCQkZFBVlYWX/va16itreXcuXNMnz4dURT53ve+x8KFC5k4cSKNjY26+Oh8PFEUhaysLOx2O0ePHkUURc6cOYOiKFRUVOD1erXYSTk5OWRkZFzRnKFRMjEjbwG/OvIf7Gx+gxmj52M1Ori9YDmyIrOvfSfp1lGsq/gCWxteoTt0jt+f/CVFqWOJJEJE4udfsFA8gKwqWA39myh3NL7GYfd7rC67h+Uld7Gz6Q3t2srKCtauXcsTTzyBxWJh0aJFzJ8/n4ULF/Jv//ZvHDt2jDVr1hCNRnn33XeJRqNs3bp1WNEV09PTKS4u5ic/+Qkmkwmz2cyRI0e4++672bFjBwcOHGDSpEnMmjULm81GIpGgpqaGl156CUmS8Hg8/Pa3v6WkpITvf//7CILA66+/zrRp03jrrbdobGzEYDCwc+dOdu3axcyZM3nkkUfIycmhvLycU6dO4fP5Rvy7uJbo4qMDDC/nuqIomqPt/fffz9NPP83zzz/PL37xCyZOnEhfXx9tbW309vaSlZWl+ckN6rQ6dEMIx0M8fehfWVqyjjsrH2DT2ZdoDTQyyjaaTFs2mbZsbEYHPeEuAMKJEP6YF1mVEYSBS2f9n1VtArvZV09CiVPnqWF12T24zGnataWlZZhMJlavXq1NKI8aNYpwOExLSwuxWIw33ngDURSZP3++dm8X3t9Q/29oaGDbtm08+uijuN1ufvWrXw2INpC89tixY/zmN78hHA7j8/m0436/n76+Prq6urSUQYPV5Xa7URSFs2fP0tvby+LFi7FarZw+fZpoNHpTLSDp4qMz7D9IWZax2+1UV1fjdrvx+/187WtfY+LEiWRkZLB792727t3L5MmTtRCq8XgcURQvmnT2x7zE5RiZtmx6wp0ICFiNdlRUQOVUzzH2tG0j257Pn8/4NnajE2+0h22Nr7Cj8bX+dqMyt2CFVmZnsB2nyUWKJZ3eSDcCAqmWDIyiCV9soAOwJEpIgkRCOS8AXq8Xj8fDY489pj2X8vJyqqurtfCxyYn0kT5HURR55ZVX+N///V/uvfde7rvvPp566qmLruvu7ubkyZPa8OjDztWXSjd0IYFAgNraWtauXcvx48dpbW29qYQHbvgOC52PE7Is85d/+ZeMHj2an//857zxxhuMGjWK3/zmN/zv//4v5eXl7Ny5k3g8jsViweFwYDAM/v0WTUR4t3UzX53xd+S7ipmUPZMlxZ+mrqcGSTTwnQU/oSpzGqFEgJgcoTt0jhZfA5OzZzHKnktZ+njGZU4eUGZ36Bw7ml7nL2/7J8aklDEp+zbWlt9LbddBOvwtyKrM3eP+jFG20dwx9vM09J3Sek8Ae/fuxWQysWjRItLS0qiqqsLj8RAOh1m9ejU5OTk8/vjjzJo1S4splJGRoYmBy+UiNTWV1NRUbDbbAJGorq7m29/+NqmpqYRCIW35vLe3l6KiIm2J3Ww2k5KSopVzqU2ayWSOubm5FwliOBympqaGCRMm0Nvbq8XIupm4Kj0fQRAGPGxVVZFlmVgsNuL9B9nZ2Tz44INEIhH++7//+yNlK5g+fToPPPAAv/71r3n33Xd1r+yrQDKQu8vlYurUqSiKwttvv827777LgQMH+OY3v0lzczOiKF422PtPD/wz9014mG/P/zFROcy2hld4s/5FQvEAPz34T9w78f/gNKbwdvPrbGl4GbvRyZ2VD/C3c/+T3oiHXx39D7zRHpq955eZf3nkKT434at8Z+FPiSbCbDr7e94481tMkoXdLVsIxQP885Jf0tB7kqcPP/VBT6ufUDDIgw8+yMMPP8w999zDzp07OXv2LP/4j//IQw89xMqVK9myZQuvvvoqKSkpzJw5kzVr1tDQ0MDRo0f53ve+p5W1adMmfv/731NbW0s8HmfPnj2Ulpbyne98h66uLn72s5/h8/l45plneOSRR1i8eDFdXV2sW7eOH//4x1o5jz/+OB6Ph5aWFqA/hMzx48dRVZVAIMDOnTuZN28ebrebM2fOaJtGVVWlq6uLXbt2UVdXd1NunRnUq93r9Q6apnYoRo0axZNPPqkFAFcUhXPnzvHqq69y8uTJITdJDUZSfNxuN08++aQWbvNKSEtLIysri8OHDyPLsu65PQgej4e+vr5hPZtwOMzjjz+O0+lk06ZNtLe3I0kSkUiEkydP8md/9mekpKTw61//GqPRqAXGdzgcFwm/ZZUX49TQDe97mw1Wvj3/R7xTt5mXHn2bhO/mGppcKZIkcdttt7F69Wp+9rOf0dTUdKObdBEj7vlIksTYsWM5ceLEReeOHTvGT3/6UwoLC1m/fj0rVqygubkZg8FASUkJZrOZ3t5empqaCIVCWpxkp9OJz+fTktFdSFVVFQ6Hg7q6OiKRCAUFBWRkZJBIJDh79iwejweTyURBQQGjRo2iq6uLrKwsPB4PHo8Hm82mnUtGEkxJSaGzs5P6+nptuTgtLY2Ojg4KCwtpbW0dtC2fdAwGA//5n/9JJBLRsogk5yRsNhvPPPMMFotFm1uIx+ND9jbldiNSvgExKwE3qEPqMKWwuGgtFtXO2aMtKDGFG9aYq8zkyZO54447OH78OG1tV7Zh81ozYvFZtWrVkOLT3d3NoUOH6O3tZdKkSYwbNw6DwcBdd93FhAkTcLvdpKam8sc//pF9+/axYsUKbr/9djo6OsjKymLHjh0cPHhQK6+goICvfOUrdHR0UFNTw8SJE1m7di3hcJjs7Gzq6+v57//+b8rKyrj33nu1Hlcy0PvevXt56KGHeOONN6isrCQtLY2GhgYqKioIBAL89Kc/Jff/tXduIVG1axz/rZk144yjjo7jObOyiMqhwjASCuww6M6inVl80UUnMCgogiCECKObgn2xYxNoFoFJXQRl+Vm0g0qiE1+fJVptbazYY07NmOEcHB1nZl+4XaifmtWkpet3NYf1LtYc1p/3fd7nef7JyRQUFOB0OrHb7ZjNZi5evEhDQ4O0qyDThyiKeDweAoEAGo0GlUo1KKbTLzT98QelUjligLTXEkagQ0QR6Z+4+10M5z+xDl4HKnjR/F8CPZNDeAA+ffrEzZs3qa+vD5lzSaj5KvEpLCwkOztbWn8OJTk5mfz8fGbPns3ChQslIXr//j337t3j8+fPHDhwgPT0dBwOB8uXL+fRo0dcvHiRgoICtFqtVE8WGxvLzp07iYyMpLi4mDdv3jBr1ix+//136uvr2bp1K6tXr6aiooJFixYhiiJlZWVotVqysrLo6uqSbpSuri56e3vp6OigoqICk8lEUVERGRkZpKam4nQ6KS0tJTU1FbPZjMfjwe12y+IzhP72rQOfD2TozsxowdKgS4nfpWTsC/LQ4yPIHzz/8oG/IG/fvpV6jv+sjFl8tmzZ8hcXgqEkL4xgtQAABl9JREFUJSWRk5MD9AXcqqqqpO3ZjRs34vF4MBqNtLS0kJCQQHh4OI8fP8Zut1NTU4PX6yUsLIxgMEhGRgaiKNLQ0MDz58+ZPn06oiiSlZVFZmYmaWlpCIKATqcjLi6O1tZWmpubiY+PHzHG1G9s15+VajQaiYmJwWKxSElaMqMjB+1lQsWY7rbCwkKysrJGtMrt59mzZxQXF6NWqwkGg2i1WtavX09+fj4nTpzg6dOnHDlyBEEQJHeI6OhodDodM2bMIDY2lra2NhQKBXV1dQQCAZYsWcKaNWvwer2sXbsWq9XK6dOn2bRpE9u3bycYDOL1etHpdKPmYEgf+P9metC3Vdnd3S1tC3+LI4WMjMy3Mar4KJVK8vLyyM7OHtPJ/H4/oihKTpzQl7cgCAJms5kVK1awePFiamtrpaK93bt3M3PmTHJycnj58iWvXr0iEAjQ2dlJeXk5Z86cYc+ePZSVlaFUKpk3bx579+5l2bJlQJ/zaGNjIzt27GDXrl2SkIyF9vZ2HA4HhYWFAIOuW0ZG5scyqvjMmTNHcvMcyNBiQZ/Ph8ViGXY77+HDhxiNRmbOnInVauXSpUuSl1RZWRm5ubnMnTuX2tpaKisrUSgUtLa2YrPZcDgclJaWYjabiY2N5erVq6xcuRJRFDl37hx5eXkolUoePHhAdHQ0s2fP5uPHj5Ihn9PppLm5GZvNhl6vp6OjQzLma2pq4t27dzQ1NREVFUVqaipv3rwhMzPzq1IDZGRkvo2Q5PlAnwC1tbURERGBwWAY9J7f78dut+Pz+aSYjkKhICYmRgoE9/b2otVqpepeh8OBWq2WDPU6OzvR6/UEAgGcTieiKKLVanG5XFL3PIfDwdy5c9m/fz+nTp2ipqaGiIgInE4nOp0Oj8cjnbOrq4v29nbS0tJISkrCbrezePFiDh06RHFxMffv3ycuLu47vtpfg6/J85GRCSUhE5+JJDU1lQ0bNhAVFUVUVBRWq5WjR4+iVCqJiYkZdez8+fMxm83odDqio6OxWCwcP34ctVotFUZOZmTxkZkoJsX2Tnt7OzU1NQSDQdxuN2/fvsXr9ZKYmPjFsVarlevXrxMIBHC5XLS0tODz+b4oWlMNhUKBXq9Hr9fT2tr6F/93jUbDsWPHKCkpGZM9s4zMpJj5QN/SzufzSQ3LhybAfc1YtVo9ZVwXxjrzOXr0KEuXLsXlcrFv3z4+fvw46P3+tAe3201CQgLTpk2jqanpp+shI/PzMClmPtC3M/etgvE9Y6cKJSUlAFRXV4+acqFQKEhPTyc7O5vOzk5cLheCIKDRaBAEgZ6eHqnqPRgMolKppJQHtVqNIAh0d3f/tFm5MqFj0oiPzMQSHh7OpUuXOHjwIPn5+VJpTXl5OSaTidzcXERRpK6ujrt377J7927sdjvp6enodDquXbvGokWLiI+Pp6qqSmrNITN5kfv5yIQUm83G5cuXuXPnDpWVlQiCQFFREdXV1Vy4cIHp06eTkZGBVqvl3bt3HD58mNevX5Obm8vZs2e5ceMGJpPpu7oZyPwayDOfKUxYWBiiKIakZGLgOQY+Tk9PR61Ws2DBAlQqFWq1Go1GA4DFYqG7u5vGxkYiIiJoa2sjOTmZjIyMQTVkMqHHHwji8wUIUyuZqIqZYcVnaAGhzORkYEuMrxWgkY7vf31gYzmv18uTJ0+AvuC+2+2WMtT7jff6g/39OWCCIMh1ZD+QgD+A2+0DBDRhEyNAI858ZPGR+VYGum82NzdLAeoXL16QkJDwxRpBmfFh7d9yMRiiuXLlCmFhinEXIPlfIBNy3r9/jyAIbNu2DVEUOXnyJEVFRZw/f56CggJp2SUzscTFxXHq1D/IyVlJd8/42y0Pm+fT2dnJunXrxv1iZMYfm82GzWaTM5ynGD09fjZu3EJp6T8BWL06n+f1f6JWjd/0Rw44y8jxlSmIIAiDOkjevl2N2byeP+v+IEw9PkuwkIqPSqUiMTGRDx8+0NPTg0qlwmAw4HA4RqwUj4iIwOv14vf7CQ8PR6lUDpsVKwgCkZGR9Pb2/lSWr5MFWXymFsP93rduXeO337bz79u3xiUIHdKYj8Fg4ODBg5hMJgRBwGAwsHnzZsmTaDhWrVqF0WhEEATi4+NJSUkZ9jilUklKSsqUqDSXkZkoysr+xd83bMTb7edHewz+Dxbm/WEph/1qAAAAAElFTkSuQmCC;" vertex="1" parent="1">
          <mxGeometry x="370" y="600" width="287" height="153" as="geometry" />
        </mxCell>
        <mxCell id="DkT8jsgZfTyul8J4btB_-116" value="이벤트" style="edgeStyle=orthogonalEdgeStyle;rounded=0;orthogonalLoop=1;jettySize=auto;html=1;exitX=0;exitY=0.5;exitDx=0;exitDy=0;entryX=1;entryY=0.5;entryDx=0;entryDy=0;labelBackgroundColor=#B3FF66;fontColor=#CC0000;" edge="1" parent="1" source="DkT8jsgZfTyul8J4btB_-115" target="DkT8jsgZfTyul8J4btB_-67">
          <mxGeometry relative="1" as="geometry" />
        </mxCell>
        <mxCell id="DkT8jsgZfTyul8J4btB_-115" value="&lt;font color=&quot;#000000&quot;&gt;오브젝트&lt;/font&gt;" style="rounded=0;whiteSpace=wrap;html=1;labelBackgroundColor=#FFFFFF;fillColor=#dae8fc;strokeColor=#6c8ebf;" vertex="1" parent="1">
          <mxGeometry x="860" y="270" width="120" height="30" as="geometry" />
        </mxCell>
      </root>
    </mxGraphModel>
  </diagram>
</mxfile>
